<?xml version="1.0" encoding="utf-8"?>
<!-- Generator: Adobe Illustrator 22.1.0, SVG Export Plug-In . SVG Version: 6.00 Build 0)  -->
<svg version="1.1" id="Layer_1" xmlns="http://www.w3.org/2000/svg" xmlns:xlink="http://www.w3.org/1999/xlink" x="0px" y="0px"
	 viewBox="0 0 1411.5 520.1" style="enable-background:new 0 0 1411.5 520.1;" xml:space="preserve">
<style type="text/css">
	.st0{fill:#356CB5;}
</style>
<path class="st0" d="M1363.3,0c-34.1,0-34.1,33-68.2,33c-34.1,0-34.1-33-68.2-33s-34.1,33-68.2,33c-34.1,0-34.1-33-68.2-33
	c-34.1,0-34.1,33-68.2,33c-34.1,0-34.1-33-68.2-33c-34.1,0-34.1,33-68.2,33C852.1,33,852.1,0,818,0c-34.1,0-34.1,33-68.2,33
	c-34.1,0-34.1-33-68.2-33c-34.1,0-34.1,33-68.2,33c-34.1,0-34.1-33-68.2-33c-34.1,0-34.1,33-68.2,33C443,33,443,0,409,0
	c-34.1,0-34.1,33-68.2,33c-34.1,0-34.1-33-68.2-33c-34.1,0-34.1,33-68.2,33c-34.1,0-34.1-33-68.2-33c-34.1,0-34.1,33-68.2,33
	C34.1,33,34.1,0,0,0v100.8v411.8h1402.5V100.8V21.3C1391.9,11.8,1383.7,0,1363.3,0z"/>
</svg>
