<?xml version="1.0" encoding="utf-8"?>
<!-- Generator: Adobe Illustrator 22.1.0, SVG Export Plug-In . SVG Version: 6.00 Build 0)  -->
<svg version="1.1" id="Layer_1" xmlns="http://www.w3.org/2000/svg" xmlns:xlink="http://www.w3.org/1999/xlink" x="0px" y="0px"
	 viewBox="0 0 119 114" style="enable-background:new 0 0 119 114;" xml:space="preserve">
<style type="text/css">
	.st0{fill:#66C917;}
	.st1{opacity:0.19;fill:#FFFFFF;enable-background:new    ;}
	.st2{fill:url(#SVGID_1_);}
</style>
<g>
	<g>
		<polygon class="st0" points="59.3,76.5 59.3,63.9 51.3,63.9 51.3,76.5 34.2,76.5 34.2,53.9 27.1,53.9 55.3,25.4 63.9,34 63.9,33 
			72,33 72,42.3 83.5,53.9 76.5,53.9 76.5,76.5 		"/>
		<g>
			<path class="st0" d="M55.3,26.8l9.6,9.7V34H71v8.7l10.1,10.2h-5.6v22.6H60.3V62.9h-10v12.6H35.2V52.9h-5.6L55.3,26.8 M55.3,23.9
				l-1.4,1.4L28.1,51.5l-3.4,3.4h4.8h3.6v20.6v2h2h15.2h2v-2V64.9h6v10.6v2h2h15.2h2v-2V54.9h3.6h4.8l-3.4-3.4L73,41.9V34v-2h-2
				h-6.1h-1.6l-6.5-6.6L55.3,23.9L55.3,23.9z"/>
		</g>
	</g>
	<path class="st1" d="M64.9,34v2.5l-9.6-9.7L29.5,52.9h5.6v11.9c10.3-4,22.3-9.9,34.6-17.3c1.3-0.8,2.5-1.5,3.8-2.3L71,42.7V34H64.9
		z"/>
	
		<linearGradient id="SVGID_1_" gradientUnits="userSpaceOnUse" x1="59.643" y1="68.8156" x2="34.1624" y2="79.803" gradientTransform="matrix(1 0 0 -1 0 116)">
		<stop  offset="0" style="stop-color:#FEE68F"/>
		<stop  offset="1" style="stop-color:#FDFAD6"/>
	</linearGradient>
	<path class="st2" d="M70.7,42.7v1.7l8.2,8.3h1.7L70.7,42.7z M30.1,52.7h1.7l23.6-23.9l9.4,9.5v-1.7l-9.4-9.5L30.1,52.7z M70.7,34.2
		h-6v1.7h6V34.2z"/>
</g>
</svg>
