<?xml version="1.0" encoding="utf-8"?>
<!-- Generator: Adobe Illustrator 22.1.0, SVG Export Plug-In . SVG Version: 6.00 Build 0)  -->
<svg version="1.1" id="Layer_1" xmlns="http://www.w3.org/2000/svg" xmlns:xlink="http://www.w3.org/1999/xlink" x="0px" y="0px"
	 viewBox="0 0 266.5 68.5" style="enable-background:new 0 0 266.5 68.5;" xml:space="preserve">
<style type="text/css">
	.st0{fill:#6CBE45;}
	.st1{font-family:'BethanieSnakePersonalUseOnly';}
	.st2{font-size:61.8591px;}
	.st3{font-size:60.17px;}
	.st4{font-size:60px;}
</style>
<text transform="matrix(1 0 0 1 56.7529 58.9395)" class="st0 st1 st2">nake</text>
<text transform="matrix(1 -1.858470e-03 1.858470e-03 1 153.0514 58.9392)" class="st0 st1 st3">Ladder</text>
<g>
	<path class="st0" d="M53.2,50.6c-2-4.7-6.4-8.1-10.8-10.4c-0.4-0.2-0.8-0.4-1.2-0.6c-1.5-0.5-2.9-1.2-4.3-2.1
		c-0.4-0.2-0.7-0.3-1.1-0.5c-1.5-0.6-3.2-1.6-4.5-2.6C29.1,32.8,28,29,30.1,27c2.7-2.6,6.7-0.4,8.4,2c0.9,1.2,1.7,2.8,2.7,4
		c1.4,0.4,2.8,1,4.1,1.8c0.7-0.1,1.2-0.5,1.2-1.3c-1.7-0.3-4.6-1.6-5.4-3.5c0-0.1,0-0.2,0.1-0.3c0.9,0.9,1.7,1.8,3.1,2.3
		c0.7,0.3,2.7,0.7,3.3,0.1c0.7-0.6,0-2-0.1-2.7c-0.2-0.8-0.7-1.5-1-2.2c-0.5-1.2-0.8-2.3-1.8-3.3c-2.5-2.5-6-3.8-9.5-3.9
		c-3.5-0.1-7.2,0.9-9.7,3.4c-2.3,2.4-2.8,5.8-2,9c0.9,3.4,3.1,6.5,6.1,8.3c3.8,2.3,6.9,3.2,10.2,5.1c1.8,1,5.3,2.9,6.2,4.9
		c0.6,1.4-0.1,3.3-1.5,3.9c-1.6,0.7-4.4-1.2-5.8-1.8c-2.1-0.9-4.2-2.1-6.4-2.9c-3.7-1.2-7-0.1-10.2,1.7c-3,1.7-4.8,3.9-5.6,7.3
		c-0.2,0.9-0.4,1.7-0.5,2.6c2-2.2,4.1-4.4,6.8-5.8c2.8-1.5,5.9-1.9,8.8-0.6c3.3,1.5,5.9,4.2,9.2,5.8c3.3,1.6,7.1,1.7,10-0.8
		C53.6,57.8,54.7,54,53.2,50.6z"/>
	<polygon class="st0" points="48.3,49.3 48.2,51 49.3,50.5 	"/>
	<polygon class="st0" points="40.9,48.3 44.6,46.3 43.9,49.7 	"/>
	<path class="st0" d="M45.5,51.4c0,0.5-0.4,0.8-0.9,0.8c-0.5,0-0.9-0.4-0.9-0.8c0-0.5,0.4-0.8,0.9-0.8C45.1,50.6,45.5,51,45.5,51.4z
		"/>
	<path class="st0" d="M42.6,25.7c0,1.4-1.1,2.6-2.4,2.6c-1.3,0-2.4-1.1-2.4-2.6c0-1.4,0-3.3,1.3-3.3C40.4,22.4,42.6,24.3,42.6,25.7z
		"/>
	<path class="st0" d="M124.6-52"/>
	<path class="st0" d="M42,26.1c0,1.2-0.9,2.1-2,2.1c-1.1,0-2-0.9-2-2.1c0-1.2,0.9-2.1,2-2.1C41.1,24,42,24.9,42,26.1z"/>
	<path class="st0" d="M40.4,26.3c0,0.3-0.3,0.6-0.6,0.6c-0.3,0-0.6-0.3-0.6-0.6c0-0.3,0.3-0.6,0.6-0.6
		C40.2,25.7,40.4,25.9,40.4,26.3z"/>
	<path class="st0" d="M46.4,26c0,1.2-0.9,2.1-2,2.1s-2-0.9-2-2.1c0-1.2,0.9-2.1,2-2.1S46.4,24.8,46.4,26z"/>
	<ellipse class="st0" cx="44.4" cy="26.1" rx="0.7" ry="0.6"/>
</g>
<text transform="matrix(1 0 0 1 130.5 58.9395)" class="st0 st1 st4">&amp;</text>
</svg>
