<?xml version="1.0" encoding="utf-8"?>
<!-- Generator: Adobe Illustrator 22.1.0, SVG Export Plug-In . SVG Version: 6.00 Build 0)  -->
<svg version="1.1" id="Layer_1" xmlns="http://www.w3.org/2000/svg" xmlns:xlink="http://www.w3.org/1999/xlink" x="0px" y="0px"
	 viewBox="0 0 807.4 712.2" style="enable-background:new 0 0 807.4 712.2;" xml:space="preserve">
<style type="text/css">
	.st0{fill:#FFFFFF;}
	.st1{fill:#C3C3C1;}
	.st2{fill:#707170;}
	.st3{fill:#94C949;}
	.st4{fill:#39A248;}
	.st5{fill:#6CBE45;}
	.st6{fill:#1D5A2D;}
	.st7{fill:#F9C95D;}
	.st8{fill:#F9E381;}
	.st9{fill:#0B0606;}
	.st10{fill:#6D0E0F;}
	.st11{fill:#91191C;}
	.st12{fill:#D22026;}
	.st13{fill:#ED1C24;}
	.st14{fill:#8B181B;}
	.st15{fill:#DBA143;}
	.st16{fill:#EDDE82;}
	.st17{fill:#EDC160;}
	.st18{fill:#B07129;}
	.st19{fill:#C18C32;}
</style>
<g>
	<path class="st0" d="M282.8,152.9c-0.3,1.3,0.5,2.7,1.8,3c1.3,0.3,2.7-0.5,3-1.8c0.3-1.3-0.5-2.7-1.8-3
		C284.5,150.8,283.2,151.6,282.8,152.9z"/>
	<g>
		<path class="st0" d="M351.3,260.5c0,0-7.5,19.5-12.7,18.8c-3.7-0.5,0.7-9.1-5.9-16.5C336.2,260.6,351.3,260.5,351.3,260.5z"/>
		<path class="st1" d="M338,258.2c0,0,6.8,10.7,0.5,21.1c-1.9,3.2-0.7-10.5-5.9-16.5C336.2,260.6,338,258.2,338,258.2z"/>
		<path class="st2" d="M338.2,279.9C338.2,279.9,338.1,279.9,338.2,279.9L338.2,279.9c-1.2-0.3-1.8-1.4-1.9-2.5l0,0
			c-0.6-3.3,0.5-9-4.1-14.2l-0.6-0.7l0.8-0.5l0,0c2.1-1.2,6.7-1.7,11-2.1l0,0c4.2-0.3,8-0.3,8-0.3l1.1,0l-0.4,1l0,0
			c0,0-1.9,4.9-4.4,9.7l0,0c-1.3,2.4-2.7,4.8-4.2,6.6l0,0c-1.5,1.8-3,3.1-4.9,2.9l0,0C338.3,280,338.3,279.9,338.2,279.9
			L338.2,279.9z M342.1,276.1c3.4-4.1,6.8-12.1,8-14.9l0,0c-1.4,0-4,0.1-6.8,0.3l0,0c-3.6,0.2-7.5,0.8-9.5,1.5l0,0
			c2.8,3.6,3.4,7.4,3.6,10.3l0,0c0.1,1.6,0.1,2.9,0.3,3.8l0,0c0.2,0.9,0.4,1.2,0.8,1.3l0,0c0,0,0.1,0,0.1,0l0,0
			C339.4,278.7,340.8,277.8,342.1,276.1L342.1,276.1z M351.3,261.2l0-0.7L351.3,261.2L351.3,261.2z"/>
	</g>
	<g>
		<path class="st3" d="M244.7,455.9c0,0-24.8-15.9-85.6-20.7c-4.5,18.4-14.9,60.4,27.1,70.8C228.2,516.4,244.7,455.9,244.7,455.9z"
			/>
		<path class="st4" d="M240.4,469.2c0,0-28.4-15.7-89.2-20.6c-4.5,18.4-7,46.9,35,57.4C228.2,516.4,240.4,469.2,240.4,469.2z"/>
		<path class="st5" d="M240.4,469.2c0,0-28.4-15.7-89.2-20.6c-4.5,18.4-1.7,33.9,40.3,44.3S240.4,469.2,240.4,469.2z"/>
		<path class="st6" d="M186,506.7c0,0-0.1,0-0.1,0l0,0c-21.2-5.2-29.4-18.7-31.4-33l0,0c-2.1-14.3,1.7-29.5,3.9-38.7l0.2-0.6
			l0.6,0.1l0,0c21,1.7,37.7,4.6,50.6,7.8l0,0c24.5,6.1,35.2,12.9,35.3,13l0.5,0.3l-0.1,0.5l-0.7-0.2l-0.4,0.6l0.4-0.6l0.7,0.2l0,0
			c0,0-4.2,15.2-13.6,29.2l0,0C222.4,499.2,207.4,512,186,506.7L186,506.7z M240.8,464.9c1.7-4.3,2.7-7.5,3.1-8.7l0,0
			c-1-0.6-3.5-2-7.8-3.8l0,0c-5.7-2.4-14.4-5.6-26.6-8.7l0,0c-12.7-3.1-29.1-6.1-49.8-7.7l0,0c-2.3,9.2-5.8,23.9-3.8,37.5l0,0
			c2.1,13.9,9.7,26.6,30.4,31.8l0,0c20.6,5.1,34.9-7.1,44.2-20.8l0,0C235.2,477.6,238.6,470.4,240.8,464.9L240.8,464.9z"/>
	</g>
	<g>
		<path class="st7" d="M332.2,540c0,0-1.4,48.9-96.7,23.3c16.1-19.6,27.7-24.9,27.7-24.9S312.9,553.7,332.2,540z"/>
		<path class="st8" d="M332.2,540c0,0,4.6,41.2-90.7,15.5c16.1-19.6,21.7-17.2,21.7-17.2S312.9,553.7,332.2,540z"/>
		<path class="st6" d="M313.4,565.8c-13.3,6.3-35.4,8.8-72.3-0.3l0,0c-1.9-0.5-3.8-1-5.7-1.5l-1.1-0.3l0.7-0.9l0,0
			c16.2-19.7,27.9-25.1,28-25.1l0.3-0.1l0.3,0.1l0,0c0,0,3,0.9,7.8,2.1l0,0c14.7,3.7,46.5,9.7,60.5-0.4l1.2-0.9l0,1.5l0,0
			c0,0,0,1.6-0.6,3.9l0,0C331,549.5,326.7,559.5,313.4,565.8L313.4,565.8z M330.9,543.6c0.2-0.8,0.3-1.6,0.4-2.1l0,0
			c-15.5,9.3-46,3.3-60.4-0.3l0,0c-4-1-6.7-1.8-7.6-2l0,0c-0.3,0.2-0.9,0.5-1.7,1l0,0c-3.9,2.3-13,8.7-24.7,22.7l0,0
			c1.6,0.4,3.1,0.8,4.6,1.2l0,0C315,582.1,328.2,553.9,330.9,543.6L330.9,543.6z M332.6,540.6l-0.4-0.6L332.6,540.6L332.6,540.6z"/>
	</g>
	<g>
		<path class="st4" d="M253.2,543.6c0,0,75.2,23.2,79.5-4.4c2.9-18.8-5.9-44.5-48.4-65.3C263.6,524.6,253.2,543.6,253.2,543.6z"/>
		<path class="st5" d="M256.2,531.5c0,0,70.3,28.7,74.6,1c2.9-18.8-3.9-37.9-46.5-58.7C263.6,524.6,256.2,531.5,256.2,531.5z"/>
		<path class="st6" d="M304.4,553.4c-13.9-0.2-29.8-3.5-40.1-6.1l0,0c-6.8-1.7-11.3-3.1-11.3-3.1l-0.9-0.3l0.4-0.8l0.7,0.4l-0.7-0.4
			l0,0c0,0,2.6-4.7,7.7-15.8l0,0c5.2-11.1,12.9-28.5,23.3-53.8l0.3-0.7l0.7,0.3l0,0c42.7,20.8,51.8,46.9,48.8,66.1l0,0
			c-0.1,0.4-0.2,0.9-0.3,1.3l0,0C330.6,550.9,318.3,553.7,304.4,553.4L304.4,553.4z M332,539.1c2.8-18.3-5.6-43.5-47.3-64.2l0,0
			c-18.1,44.3-28.3,64.1-30.4,68.2l0,0c1.6,0.5,5.3,1.5,10.3,2.8l0,0c10.3,2.6,26.1,5.8,39.8,6l0,0c13.8,0.2,25.1-2.7,27.3-11.7l0,0
			C331.9,539.9,331.9,539.5,332,539.1L332,539.1z"/>
	</g>
	<g>
		<path class="st6" d="M284.3,550.6c-0.1,0.2-5.2,15.4-21,19.4l-0.4-1.4l0,0c7.5-1.9,12.5-6.5,15.6-10.6l0,0
			c3.1-4.1,4.3-7.8,4.3-7.8L284.3,550.6L284.3,550.6z M284.3,550.6L284.3,550.6L284.3,550.6L284.3,550.6
			C284.3,550.6,284.3,550.6,284.3,550.6L284.3,550.6z"/>
	</g>
	<g>
		<path class="st6" d="M310.5,553l-1.4-0.6c0,0-1.4,3-4.4,6.7l0,0c-3,3.7-7.7,8-14.2,10.6l0,0l0.6,1.4
			C304.6,565.7,310.4,553.1,310.5,553L310.5,553z"/>
	</g>
	<g>
		<path class="st7" d="M121,302.6c0,0,3.8-16.7,9.7-0.3c4.6,12.8,8,22.3,35.7,37.3c25.1,13.5,38.5,37.2,26,68.7
			c-14.1,35.7-53.7,77,2.8,94.1c-16.7,5.5-64.2,1.4-72.3-23.3c-8.1-24.7,18.4-52.7,28.3-69.5c9.9-16.8,19.8-33.5-1.3-55.3
			C128.9,332.6,119.2,321.3,121,302.6z"/>
		<path class="st8" d="M121,302.6c0,0,3.8-16.7,9.7-0.3c4.6,12.8,8,22.3,35.7,37.3c25.1,13.5,38.5,37.2,26,68.7
			c-14.1,35.7-53.7,77,2.8,94.1c-16.7,5.5-55.4-0.1-63.6-24.8c-8.1-24.7,14.1-49,24-65.8c9.9-16.8,19.3-35.1-1.8-56.8
			C132.7,333.2,119.2,321.3,121,302.6z"/>
		<path class="st4" d="M125.1,304.3c0,0-0.3-18.4,5.6-2c4.6,12.8,8,22.3,35.7,37.3c25.1,13.5,38.5,37.2,26,68.7
			c-14.1,35.7-53.7,77,2.8,94.1c-16.7,5.5-49.5,1.8-55-11.9c-8.9-22.2,15.1-58.8,24.9-75.6c10.5-18.1,20.7-42.9-3.5-65.5
			C150.5,338.8,125.8,329.8,125.1,304.3z"/>
		<path class="st5" d="M125.1,304.3c0,0-0.3-18.4,5.6-2c4.6,12.8,8,22.3,35.7,37.3c25.1,13.5,30.1,37.9,17.7,69.5
			c-14.1,35.7-52.1,80.9,4.4,98c-16.7,5.5-42.7-2.8-48.2-16.5c-8.9-22.2,15.1-58.8,24.9-75.6c10.5-18.1,20.7-42.9-3.5-65.5
			C150.5,338.8,125.8,329.8,125.1,304.3z"/>
		<path class="st6" d="M195.5,503.1c-8.9,2.9-25.8,3.1-41.3-0.7l0,0c-14.4-3.6-27.8-10.7-31.9-23.1l0,0c-2.1-6.5-1.9-13.2-0.3-19.8
			l0,0c4.8-19.2,21.4-37.9,28.7-50.3l0,0c4.2-7.1,8.3-14.1,10.1-21.4l0,0c2.4-10,0.7-20.5-11.3-33l0,0
			c-21.1-21.7-31.1-33.4-29.3-52.4l0-0.1l0-0.1l0,0c0,0,0-0.1,0.1-0.2l0,0c0.2-0.7,0.7-2.7,1.6-4.5l0,0c0.9-1.7,2.1-3.7,4.3-3.2l0,0
			c1.9,0.5,3.4,2.7,5.2,7.7l0,0c4.6,12.7,7.7,21.9,35.4,36.9l0,0c22.8,12.2,36.2,33.1,29.4,60.3l0,0c-0.7,3-1.7,6.1-3,9.3l0,0
			c-7.3,18.4-21.1,38.2-25.3,55.2l0,0c-3.9,16.2,0.3,29.6,27.7,37.9l2.3,0.7L195.5,503.1L195.5,503.1z M154.5,501
			c13.9,3.5,29.2,3.5,38.1,1.4l0,0c-25.7-8.4-30.4-22.8-26.3-39l0,0c4.3-17.4,18.2-37.2,25.4-55.4l0,0c1.2-3.1,2.2-6.2,2.9-9.1l0,0
			c6.6-26.6-6.2-46.6-28.6-58.7l0,0c-27.8-14.9-31.5-24.9-36.1-37.7l0,0c-1.7-4.9-3.3-6.6-4.1-6.7l0,0c-0.7-0.3-1.7,0.7-2.6,2.5l0,0
			c-0.8,1.6-1.3,3.6-1.5,4.2l0,0c0,0.1,0,0.1,0,0.2l0,0c-1.7,18.2,7.7,29.4,28.9,51.1l0,0c12.3,12.7,14.3,24,11.7,34.4l0,0
			c-1.9,7.6-6.1,14.7-10.3,21.8l0,0c-7.4,12.6-23.9,31.2-28.5,49.9l0,0c-1.6,6.4-1.8,12.8,0.2,19l0,0
			C127.5,490.4,140.2,497.5,154.5,501L154.5,501z"/>
	</g>
	<g>
		<path class="st6" d="M145.3,498.3c-6.5-9.4-7.1-20.3-4.2-32.2l0,0c4.3-17.4,16.3-37.1,28.1-57.2l0,0c3.6-6.2,6-11.9,7.4-17.3l0,0
			c6.1-24.7-9.9-41.7-30.3-55l0,0c-22.9-15-21.4-31.9-19.8-38.4l0,0c0.4-1.8,0.9-2.7,0.9-2.7l0,0l0,0l-1.4-0.6c0,0-0.5,1.1-0.9,3
			l0,0c-1.7,6.9-3.1,24.7,20.4,40l0,0c20.3,13.3,35.5,29.6,29.7,53.4l0,0c-1.3,5.2-3.6,10.9-7.2,16.9l0,0
			c-11.8,20.1-23.8,39.8-28.2,57.6l0,0c-3,12.2-2.4,23.6,4.4,33.4l0,0L145.3,498.3L145.3,498.3z"/>
	</g>
	<g>
		<path class="st6" d="M138.7,476.7c-4.8-1.9-8.9-5.3-11.8-8.2l0,0c-2.9-2.9-4.5-5.2-4.5-5.2l0,0l0,0l-1.2,0.9
			c0,0,6.8,9.8,16.9,13.9l0,0L138.7,476.7L138.7,476.7z"/>
	</g>
	<g>
		<path class="st6" d="M144.8,453.3c-4.6-2.2-7.8-5.5-10-8.2l0,0c-2.1-2.7-3.1-4.9-3.1-4.9l0,0l0,0l-1.4,0.6
			c0,0.1,4.1,9.2,13.8,13.8l0,0L144.8,453.3L144.8,453.3z"/>
	</g>
	<g>
		<path class="st6" d="M153.8,434.9c-4-3.5-5.9-7.5-6.8-10.7l0,0c-0.9-3.1-0.8-5.3-0.8-5.3l0,0l-1.5-0.1c0,0.1-0.4,9.6,8.1,17.1l0,0
			L153.8,434.9L153.8,434.9z"/>
	</g>
	<g>
		<path class="st6" d="M166.3,412.9c-2.9-2.9-4.8-6.7-6-9.7l0,0c-1.2-3.1-1.6-5.4-1.6-5.4l0,0l-1.5,0.3c0,0.1,1.9,9.7,8,15.9l0,0
			L166.3,412.9L166.3,412.9z"/>
	</g>
	<g>
		<path class="st6" d="M176.2,391l0.1-1.5c-1.2-0.1-2.4-0.3-3.6-0.6l0,0c-5.4-1.3-10.2-4.6-10.2-4.6l0,0l-0.8,1.2
			c0,0,4.9,3.4,10.7,4.8l0,0C173.6,390.7,174.9,390.9,176.2,391L176.2,391z"/>
	</g>
	<g>
		<path class="st6" d="M170.8,360.6l-1-1.1c-3.1,2.8-6.1,4-8.2,4.5l0,0c-2.2,0.5-3.4,0.3-3.4,0.3l0,0l0,0l-0.2,1.5
			C158.1,365.9,164.2,366.6,170.8,360.6L170.8,360.6z"/>
	</g>
	<g>
		<path class="st6" d="M153.8,343.1l-1.1-1c-2.1,2.5-4.5,3.5-6.4,4l0,0c-1.9,0.5-3.2,0.4-3.2,0.4l0,0l0,0l-0.1,1.5
			C143,348,149,348.6,153.8,343.1L153.8,343.1z"/>
	</g>
	<g>
		<path class="st6" d="M135.6,328.9l-0.9-1.2c-1.4,1.1-3,1.5-4.3,1.6l0,0c-1.2,0.1-2.1-0.1-2.1-0.1l0,0l0,0l-0.3,1.5
			C128.1,330.6,132.1,331.5,135.6,328.9L135.6,328.9z"/>
	</g>
	<g>
		<path class="st7" d="M132.4,438.1c0,0-25.1,40.7,7.6,56.1c32.7,15.4,95.5,16.3,98.8-52.8c2.7-57.5-16.8-81-28.2-128.4
			c-8.2-34.1-10.9-83.4-23.4-104.2c26.1,3.4,77.6,46.9,77.6,46.9s-3.8,56.9,24,123.6c26,62.6,33.3,175.4-68.7,196.7
			C92.1,602.6-14.5,446.3,132.4,438.1z"/>
		<path class="st8" d="M132.4,438.1c0,0-25.1,40.7,7.6,56.1c32.7,15.4,95.5,16.3,98.8-52.8c2.7-57.5-16.8-81-28.2-128.4
			c-8.2-34.1-10.9-83.4-23.4-104.2c26.1,3.4,68.5,39,68.5,39s-0.4,67.2,27.3,133.9c26,62.6,33,163.4-69.1,184.7
			C86,593-3.7,445.1,132.4,438.1z"/>
		<path class="st3" d="M65.4,496.6c-14.2-23.6,8.2-55.4,67-58.6c0,0-25.1,40.7,7.6,56.1c32.7,15.4,95.5,16.3,98.8-52.8
			c2.7-57.5-16.8-81-28.2-128.4c-8.2-34.1-10.9-83.4-23.4-104.2c17.7,2.9,27.2,16.5,27.2,16.5s3,74.2,25.2,142.2
			c23.1,65.8,30.1,164.3-79.8,163.2C107.8,531.3,75.2,512.9,65.4,496.6z"/>
		<path class="st7" d="M65.4,496.6c-13.3-24.1,3.7-46.1,62.5-49.2c0,0-16.2,34.4,12.1,46.7c33.2,14.4,101.4,20.6,104.7-48.5
			c2.7-57.5-18.2-86-29.5-133.4c-8.2-34.1-4.3-80.8-16.9-101.6c17.7,2.9,30.7,17.2,30.7,17.2s-8,70.5,14.2,138.4
			c23.1,65.8,29.6,169.9-80.2,168.9C110.9,535.9,79.1,521.3,65.4,496.6z"/>
		<path class="st4" d="M65.4,496.6c-14.2-23.6,3.7-46.1,62.5-49.2c0,0-16.2,34.4,12.1,46.7c33.2,14.4,101.4,20.6,104.7-48.5
			c2.7-57.5-18.2-86-29.5-133.4c-8.2-34.1-4.3-80.8-16.9-101.6c17.7,2.9,16.1,14.5,16.1,14.5s3,74.2,25.2,142.2
			c23.1,65.8,30.1,164.3-79.8,163.2C107.8,531.3,75.2,512.9,65.4,496.6z"/>
		<path class="st5" d="M69.6,496.6c-14.2-23.6-6.5-48.2,58.3-49.1c0,0-16.2,34.4,12.1,46.7c33.2,14.4,101.4,20.6,104.7-48.5
			c2.7-57.5-18.2-86-29.5-133.4c-8.2-34.1-4.3-80.8-16.9-101.6c17.7,2.9,12,13.7,12,13.7s5.5,76.8,27.7,144.7
			c23.1,65.8,36.1,156-73.7,155C112.2,524.9,79.4,512.8,69.6,496.6z"/>
		<path class="st6" d="M220.3,576.6c-22.9,4.8-45.2,3.7-65.4-1.3l0,0C95.3,560.5,53,511.7,61.7,475.8l0,0
			c5.1-20.4,26.8-36.1,70.6-38.5l1.4-0.1l-0.7,1.2l0,0c0,0-5,8.2-7.6,18.6l0,0c-3.1,12.7-2.6,28.2,14.9,36.5l0,0
			c4.8,2.3,10.4,4.2,16.3,5.7l0,0c29.8,7.3,68.6,1.9,79-39.9l0,0c1.3-5.4,2.2-11.3,2.5-17.9l0,0c2.7-57.3-16.8-80.7-28.1-128.2l0,0
			c-8.2-34.2-10.9-83.5-23.3-104l-0.8-1.3l1.5,0.2l0,0c1.3,0.2,2.6,0.4,4,0.8l0,0c27.3,6.8,73.9,46.3,74,46.3l0.3,0.2l0,0.4l0,0
			c0,0-0.9,14.1,1.6,36.6l0,0c2.5,22.5,8.5,53.3,22.3,86.6l0,0c13.8,33.1,22.3,80.1,12.3,120.5l0,0
			C292.9,535.6,268.8,566.5,220.3,576.6L220.3,576.6z M288.1,379.4c-26.5-63.7-24.3-118.5-24.1-123.5l0,0
			c-1.9-1.6-12.7-10.6-26.4-20.3l0,0c-15-10.7-33.4-22.2-46.7-25.5l0,0c-0.8-0.2-1.5-0.4-2.3-0.5l0,0c12,21.8,14.7,69.7,22.7,103
			l0,0c11.3,47.2,30.9,70.9,28.2,128.6l0,0c-0.3,6.7-1.2,12.7-2.5,18.2l0,0c-5.3,21.4-18,33.6-33.1,39.4l0,0
			c-15.1,5.8-32.6,5.3-47.7,1.6l0,0c-6-1.5-11.6-3.5-16.5-5.8l0,0c-18.4-8.6-19-25.3-15.7-38.2l0,0c2-8.2,5.6-15.1,7.1-17.8l0,0
			c-42.7,2.7-63.1,18-67.9,37.3l0,0c-4.3,17.2,3.9,38,20.6,56.3l0,0c16.7,18.3,41.9,34.1,71.4,41.4l0,0c20,5,42.1,6,64.8,1.3l0,0
			c48-10,71.5-40.3,80.4-76.1l0,0C310.3,459.1,301.8,412.3,288.1,379.4L288.1,379.4z M132.4,438.8l0-0.7L132.4,438.8L132.4,438.8z"
			/>
	</g>
	<g>
		<path class="st6" d="M112.8,526.1c12.8,3.2,28.8,5.2,48.6,5.2l0,0c56,0.1,81-25.8,89.2-59.1l0,0c8.3-33.6-0.2-74.7-9.8-104.6l0,0
			c-10.2-31.7-17-68.7-21.2-97.8l0,0c-4.2-29.1-5.9-50.2-5.9-50.2l0,0l0,0l-1.5,0.1c0,0,6.7,84.7,27.2,148.3l0,0
			c9.6,29.8,18,70.7,9.8,103.8l0,0c-8.2,32.7-32.2,57.9-87.8,57.9l0,0c-19.7,0-35.5-2.1-48.2-5.2l0,0c-33.7-8.3-45.5-24.5-49.3-31.9
			l0,0c-1.3-2.5-1.6-4-1.6-4l0,0l-1.4,0.4C60.9,489.3,67.4,514.8,112.8,526.1L112.8,526.1C112.8,526.1,112.8,526.1,112.8,526.1
			L112.8,526.1z"/>
	</g>
	<g>
		<path class="st6" d="M83.1,531.8c-2.3-6.1-2.9-11.3-2.9-15l0,0c0-3.6,0.5-5.7,0.5-5.7l0,0l0,0l-1.4-0.4c0,0.1-2.2,8.9,2.5,21.5
			l0,0L83.1,531.8L83.1,531.8z"/>
	</g>
	<g>
		<path class="st6" d="M117.6,559.1c-6-7-8.8-15.9-10-23l0,0c-1.2-7.1-0.9-12.5-0.9-12.5l0,0l-1.5-0.1c0,0.1-1.3,21.9,11.2,36.6l0,0
			L117.6,559.1L117.6,559.1z"/>
	</g>
	<g>
		<path class="st6" d="M178.8,577.7c-28.3-11.6-36.7-33.3-39.1-43.4l0,0c-0.8-3.4-0.9-5.4-0.9-5.4l0,0l0,0l-1.5,0.1
			c0,0.1,2.4,34.4,41,50.1l0,0L178.8,577.7L178.8,577.7z"/>
	</g>
	<g>
		<path class="st6" d="M238.7,571.5l0.2-1.5c-4.8-0.5-9.2-1.3-13.3-2.3l0,0c-28.6-7.1-41.2-24.7-45.8-33.1l0,0
			c-1.5-2.8-2.1-4.5-2.1-4.5l0,0l0,0l-1.4,0.5c0,0.1,10.2,28.9,48.9,38.5l0,0C229.4,570.2,233.9,571,238.7,571.5L238.7,571.5z"/>
	</g>
	<g>
		<path class="st6" d="M278.2,545.3l-0.2-1.5c-8.5,1.4-17.1,0.6-25.1-1.4l0,0c-11.5-2.9-21.9-8.2-29.4-12.8l0,0
			c-7.5-4.6-12-8.4-12.1-8.5l0,0l-1,1.1c0,0,18.6,15.7,42.1,21.5l0,0C260.7,545.9,269.4,546.8,278.2,545.3L278.2,545.3z"/>
	</g>
	<g>
		<path class="st6" d="M300.7,503.1l-0.8-1.3c-11.2,6.8-24.1,6.3-35,3.6l0,0c-6.8-1.7-12.9-4.3-17.2-6.4l0,0
			c-4.3-2.1-6.9-3.8-6.9-3.8l0,0l-0.8,1.2c0,0,10.6,7,24.5,10.4l0,0C275.7,509.6,289,510.1,300.7,503.1L300.7,503.1z"/>
	</g>
	<g>
		<path class="st6" d="M306,465l-0.6-1.4c-19.2,8.3-36.4,6.3-45.9,3.9l0,0c-4.9-1.2-7.6-2.5-7.7-2.5l0,0l0,0l-0.6,1.4
			c0,0,2.9,1.3,7.9,2.6l0,0C268.8,471.4,286.4,473.5,306,465L306,465z"/>
	</g>
	<g>
		<path class="st6" d="M302.5,427.2c-0.4,0.1-24.4,10.5-49.3,4.9l0.3-1.5l0,0c12.2,2.8,24.3,1.6,33.4-0.3l0,0c9.1-1.9,15-4.5,15-4.5
			L302.5,427.2L302.5,427.2z M302.5,427.2L302.5,427.2L302.5,427.2L302.5,427.2C302.5,427.2,302.5,427.2,302.5,427.2L302.5,427.2z"
			/>
	</g>
	<g>
		<path class="st6" d="M294.1,391.2L294.1,391.2l-0.8-1.2c0,0-1.1,0.7-3.1,1.7l0,0c-2.1,1-5.1,2.3-9,3.4l0,0
			c-7.8,2.2-19,3.6-32.7,0.4l0,0L248,397C276,403.4,294,391.3,294.1,391.2L294.1,391.2z"/>
	</g>
	<g>
		<path class="st6" d="M282.9,364.3l-1-1.1c-5.2,4.5-15.7,5.7-24.8,5.5l0,0c-9.1-0.2-16.9-1.5-16.9-1.5l0,0l0,0l-0.3,1.5
			C240.1,368.5,271.2,374.2,282.9,364.3L282.9,364.3z"/>
	</g>
	<g>
		<path class="st6" d="M275.7,340.7l-0.5-1.4c0,0-5.4,1.8-12.8,3.1l0,0c-7.4,1.3-16.8,2.1-24.6,0.2l0,0c-1.6-0.4-3.1-0.9-4.5-1.5
			l0,0l-0.6,1.4c1.5,0.7,3.1,1.2,4.8,1.6l0,0C253.9,348.1,275.6,340.7,275.7,340.7L275.7,340.7z"/>
	</g>
	<g>
		<path class="st6" d="M270.4,320c-0.2,0-22,3-39.7-1.4l0,0c-1.4-0.3-2.8-0.7-4.1-1.2l0.5-1.4l0,0c1.3,0.4,2.6,0.8,4,1.2l0,0
			c8.7,2.1,18.4,2.5,26,2.3l0,0c7.6-0.2,13.1-0.9,13.1-0.9L270.4,320L270.4,320z M270.4,320L270.4,320L270.4,320L270.4,320
			L270.4,320L270.4,320z"/>
	</g>
	<g>
		<path class="st6" d="M266.9,297.1L266.9,297.1l-0.1-1.5c0,0-11.4,0.8-26.1-2.8l0,0c-5.8-1.4-12-3.5-18.3-6.7l0,0l-0.7,1.3
			c6.4,3.2,12.7,5.3,18.6,6.8l0,0C255.2,297.9,266.8,297.1,266.9,297.1L266.9,297.1z"/>
	</g>
	<g>
		<path class="st6" d="M264.8,272l0-1.5c0,0-10.6-0.2-23-3.3l0,0c-8.1-2-17.1-5.3-24.4-10.5l0,0l-0.9,1.2
			c7.5,5.4,16.6,8.7,24.9,10.7l0,0C254.1,271.8,264.8,272,264.8,272L264.8,272z"/>
	</g>
	<g>
		<path class="st4" d="M307.5,107c0,0-17.6-26.4-48.5-8.9c-28.4-7.5-55.8,26.7-55.8,26.7s-48.4,1.6-43.6,45.6
			c5.8,53.2,65.8,65.5,74.9,78.5c9.1,13,17.7,52.6,52.7,54.1c35,1.5,38.6-19.2,31.9-39.8c14.3-10.3,61.5-6.3,54.5-31.6
			c-7.1-25.3-43.9-44.2-36.8-62.4C343.8,150.9,371.6,102.9,307.5,107z"/>
		<path class="st3" d="M307.5,107c0,0-18.3-25.8-49.2-8.4c-26-10.8-54.7,26.8-54.7,26.8s-49.5-2.6-43.9,44.8
			c5.8,49.1,41.3,42.2,58.8,56.6c17,14,33.7,63.2,68.5,66.9c29.4,3.2,38.9-10.1,32.2-30.7c14.3-10.3,61.5-6.3,54.5-31.6
			c-7.1-25.3-53.4-38.9-46.3-57.1C334.3,156.2,378,103.7,307.5,107z"/>
		<path class="st5" d="M311.6,113.2c0,0-21.7-38.7-64.6-0.1c-15.5-3.8-30,10.2-30,10.2s-55.1,6.7-49.5,54.2
			c6.6,56,37.4,39.5,50.8,49.5c17.7,13.2,35.9,72.4,72.7,70.8c29.6-1.3,34.7-14,28-34.6c14.3-10.3,62.9-6.7,54.5-31.6
			c-12.3-36.4-50.6-41.8-43.6-60C337.1,153.3,377,105.8,311.6,113.2z"/>
		<path class="st4" d="M347.6,195.4c0,0-19.1-7.8-26.6-8.6c-7.5-0.8-14.2,0.1-14.2,0.1s14.6-2.8,13.9-14.5
			c-0.7-11.7-9.9-35,2.4-45.8c12.8-11.2,25.5,6.8,25.5,6.8l-10,50.6L347.6,195.4z"/>
		<path class="st4" d="M244.1,218.2c0,0-14.4-22.8-17.8-28.5c-3.5-5.7-8.9-12.8-11.9-12.2c-5.7,1.2-8,8.5-8,8.5s-7.2-18.1,11.8-18.8
			c2.3,11.6,12,22.4,12,22.4L244.1,218.2z"/>
		<path class="st4" d="M271.8,237.8l-15.6-24.5c0,0-12.5-7.4-18.7-14c-14.6-15.4-19.3-32.2-19.3-32.2s9.6-2.6,16.7,1
			c-9.1-0.2-10.9,1.7-10.9,1.7s7.3,18,25.1,27c5.8,3,29.6,4.8,29.6,4.8s-11.7,4.8-9.7,12.2c2,7.4,7.3,10,7.3,10
			S269.8,232.2,271.8,237.8z"/>
		<path class="st6" d="M287.2,303.7c-3.1-0.1-5.9-0.6-8.6-1.2l0,0c-28.5-7.1-36.5-41.6-44.7-53.2l0,0c-4.2-6.1-21.5-12.6-38.5-24
			l0,0c-16.9-11.4-33.6-28-36.5-54.9l0,0c-0.7-6.2-0.3-11.7,0.9-16.4l0,0c6.9-27.3,39.4-29.8,43.1-30l0,0
			c2.6-3.1,28.4-33.5,55.8-26.8l0,0c0.1,0,0.2,0,0.2,0.1l0,0c11.3-6.3,20.9-6.9,28.5-5l0,0c12.1,3,19.1,12,20.5,13.9l0,0
			c9.5-0.6,17,0,22.8,1.4l0,0c9.6,2.4,15,7.2,17.3,13.3l0,0c2.3,6.1,1.8,13.3,0,20.4l0,0c-2.7,10.7-8,21.4-10.6,28l0,0
			c-0.2,0.5-0.4,1-0.5,1.5l0,0c-2.1,8.3,5.2,17.2,14.3,27.1l0,0c9,9.9,19.5,20.7,23,33.3l0,0c0.9,3.1,1,5.9,0.4,8.3l0,0
			c-2.3,8.9-13.2,12.5-24.8,15.3l0,0c-11.4,2.6-23.7,4.4-29.9,8.6l0,0c2.5,7.8,3.5,15.6,1.8,22.4l0,0
			C319.1,296.9,308.9,304.6,287.2,303.7L287.2,303.7z M346.6,141.1c3.4-14,2.3-27.3-16.2-31.9l0,0c-5.8-1.4-13.2-2-22.8-1.4l-0.4,0
			l-0.2-0.4l0,0c0,0-1.7-2.6-5.1-5.6l0,0c-3.4-3-8.3-6.4-14.8-8l0,0c-7.3-1.8-16.6-1.3-27.7,5l-0.3,0.1l-0.3-0.1l0,0
			c-0.2,0-0.3-0.1-0.5-0.1l0,0c-13.7-3.4-27.4,3.1-37.6,10.7l0,0c-5.1,3.8-9.3,7.7-12.3,10.8l0,0c-3,3-4.6,5.1-4.6,5.1l-0.2,0.3
			l-0.3,0l0,0c0,0-8.8,0.3-18.5,4.1l0,0c-9.7,3.8-20.1,11-23.5,24.8l0,0c-1.1,4.5-1.5,9.8-0.8,15.9l0,0
			c2.9,26.3,19.1,42.5,35.9,53.8l0,0c16.8,11.3,34,17.5,38.9,24.4l0,0c8.4,12.2,16.4,45.8,43.8,52.6l0,0c2.6,0.6,5.4,1.1,8.4,1.2
			l0,0c21.4,0.9,30.5-6.4,33.1-16.7l0,0c1.6-6.5,0.6-14.3-2-22.1l-0.2-0.5l0.4-0.3l0,0c6.6-4.7,19.3-6.4,30.9-9.1l0,0
			c11.6-2.7,21.8-6.4,23.7-14.2l0,0c0.5-2.1,0.5-4.6-0.3-7.5l0,0c-3.3-12-13.7-22.7-22.7-32.7l0,0c-9-9.9-16.9-19.1-14.6-28.5l0,0
			c0.1-0.6,0.3-1.2,0.5-1.7l0,0C338.6,162.1,344,151.6,346.6,141.1L346.6,141.1z M307.5,107l0-0.7L307.5,107L307.5,107z"/>
	</g>
	<g>
		<path class="st6" d="M249.1,106.9c2.1-2.8,5.4-6.1,10.2-8.1l0,0l-0.6-1.4c-10.1,4.4-12.6,14.4-12.6,14.5l0,0l0,0l0,0
			C246.1,111.9,247,109.7,249.1,106.9L249.1,106.9z"/>
	</g>
	<g>
		<path class="st6" d="M313.3,120.1c0,0-1-9.3-5.3-13.6l0,0l-1.1,1.1c1.9,1.9,3.6,5.1,4.7,7.7l0,0
			C312.7,118,313.3,120.1,313.3,120.1L313.3,120.1L313.3,120.1L313.3,120.1z"/>
	</g>
	<g>
		<path class="st6" d="M222.7,125.8c-4.4-1.1-11.2-2-19.3-0.3L203,124l0,0c5.3-1.1,10.1-1.1,14-0.7c5.8,0.8,10.9,4.3,10.9,4.3l0,0
			C227.9,127.5,226,126.6,222.7,125.8L222.7,125.8z M228,127.6L228,127.6L228,127.6L228,127.6C228,127.6,228,127.6,228,127.6
			L228,127.6z"/>
	</g>
	<g>
		<path class="st6" d="M273.6,188.7c3.4,0.8,10.8,0.1,16.8-4l0,0l0,0c-8.4,3.1-13.5,3.3-16.4,2.6l0,0c-2.9-0.7-3.9-2.3-4.2-3l0,0
			c-0.1-0.2-0.1-0.3-0.1-0.3l0,0l0,0C269.7,184.1,269.1,187.6,273.6,188.7L273.6,188.7C273.6,188.7,273.6,188.7,273.6,188.7
			L273.6,188.7z"/>
	</g>
	<g>
		<path class="st6" d="M235.2,248.6c-4.8-12.2-18.8-23-18.9-23l0,0l0,0c0,0,3.2,2.9,7,7.4l0,0c3.8,4.4,8.2,10.4,10.5,16.2l0,0
			L235.2,248.6L235.2,248.6z"/>
	</g>
	<g>
		<path class="st6" d="M351.8,198.6c-6.5-5.6-14.6-8.9-22.2-10.7l0,0c-12.1-3-22.7-1-22.7-1l0,0l0,0l0,0c0,0,2.6-0.1,6.8,0.1l0,0
			c4.1,0.2,9.7,0.9,15.6,2.3l0,0c7.4,1.8,15.3,5,21.5,10.4l0,0L351.8,198.6L351.8,198.6z"/>
	</g>
	<g>
		<path class="st6" d="M298.5,130.3c0,0-1.5-14.1-13.6-17.4l0,0c-4.8-1.2-11.9,0.3-17.6,5.8l0,0l0,0c7.3-4.6,12.9-5.4,17.3-4.3l0,0
			c5.1,1.3,8.7,5.2,10.9,8.9l0,0C297.6,126.9,298.5,130.3,298.5,130.3L298.5,130.3L298.5,130.3L298.5,130.3z"/>
	</g>
	<g>
		<path class="st6" d="M349.5,134.3c-4.9-7.1-10.4-10-14.8-11.1l0,0c-4.6-1.1-7.4,1.2-7.5,1.2l0,0l0,0l0,0c0,0,0.7-0.2,2-0.3l0,0
			c1.3-0.1,3.1,0,5.2,0.5l0,0c4,1,9.2,3.7,13.9,10.5l0,0L349.5,134.3L349.5,134.3z"/>
	</g>
	<g>
		<path class="st1" d="M338.7,183.9c0,0-20.9-10.8-17.2-48.3C324.2,107.8,377,149.4,338.7,183.9z"/>
		<path class="st0" d="M338.7,183.9c0,0-18-3.7-14.4-41.2C327,114.9,375.1,147.2,338.7,183.9z"/>
		<path class="st9" d="M339.2,184.5l-0.4,0.3l-0.5-0.2l0,0c-0.2,0-21.4-11.2-17.6-49.1l0,0c0.1-0.9,0.2-1.8,0.4-2.6l0,0
			c0.7-3,2.3-5.1,4.3-6.2l0,0c2-1.1,4.5-1.2,7-0.6l0,0c10.9,2.7,24.5,19.1,19.9,37.9l0,0C350.7,170.8,346.6,177.8,339.2,184.5
			L339.2,184.5z M338.7,183.9l-0.5-0.6L338.7,183.9L338.7,183.9z M347,139.8c-4-6.5-9.9-11-14.8-12.3l0,0c0,0,0,0,0,0l0,0
			c-4.6-1-8.1,0.3-9.5,5.7l0,0c-0.2,0.7-0.3,1.5-0.4,2.4l0,0c-1.8,18.6,2.5,30.5,7.1,37.8l0,0c2.3,3.6,4.8,6.1,6.6,7.7l0,0
			c1.2,1,2.1,1.6,2.6,1.9l0,0c7-6.4,10.8-13.1,12.3-19.4l0,0C353.2,154.7,351,146.3,347,139.8L347,139.8z"/>
	</g>
	<g>
		<path class="st4" d="M254.2,152.3c1.2,18.5,12.9,32.8,26.1,31.9c13.2-0.9,23.8-18.3,22.6-36.8c-1.2-18.5-10.8-31.1-24-30.3
			C265.7,118,253,133.8,254.2,152.3z"/>
		<path class="st1" d="M257.8,150.8c1,16.2,11.8,28.7,24,27.9c12.2-0.8,21.2-14.5,20.2-30.7c-1-16.2-11.8-28.7-24-27.9
			C265.8,120.9,256.7,134.6,257.8,150.8z"/>
		<path class="st0" d="M260.2,155.2c0.9,13.7,10.5,24.2,21.4,23.5c10.9-0.7,19.1-12.4,18.2-26c-0.9-13.7-10.5-24.2-21.4-23.5
			C267.5,129.9,259.3,141.5,260.2,155.2z"/>
		<path class="st9" d="M281.8,179.4c-1.8,0.1-3.7-0.1-5.4-0.5l0,0c0,0,0,0,0,0l0,0c-10.3-2.6-18.4-14-19.3-28.1l0,0
			c-0.3-4.1,0.1-8,1-11.7l0,0c2.7-11,10.3-19.2,19.9-19.8l0,0c1.9-0.1,3.7,0.1,5.4,0.5l0,0c10.3,2.6,18.4,14,19.3,28.1l0,0
			c0.3,4.1-0.1,8-1,11.7l0,0C299,170.6,291.4,178.8,281.8,179.4L281.8,179.4z M301.2,148c-0.9-13.6-8.7-24.4-18.2-26.7l0,0
			c0,0,0,0,0,0l0,0c-1.6-0.4-3.3-0.6-5-0.4l0,0c-8.7,0.5-15.9,8.1-18.5,18.7l0,0c-0.9,3.5-1.2,7.3-1,11.2l0,0l0,0
			c0.9,13.6,8.7,24.4,18.2,26.7l0,0c1.6,0.4,3.3,0.6,5,0.5l0,0c8.7-0.5,15.9-8.1,18.5-18.7l0,0C301.1,155.8,301.5,152,301.2,148
			L301.2,148z"/>
	</g>
	<g>
		<path class="st10" d="M230.6,190.6c0,0,11.3,15.1,25,23.1c12.1,19.5,22.4,41.3,59,50.4c2.5,16.4-1.2,31.2-24.5,24.3
			C252.2,277.1,261.5,244.4,230.6,190.6z"/>
		<path class="st11" d="M243.1,204.3c0.1,0.4,0.3,0.9,0.7,1.2c5.4,4.7,8.5,11.3,11.8,17.6c2.9,5.4,6.4,10.3,9.5,15.6
			c6.3,10.9,10.1,24.7,18.2,34.5c4.8,5.7,15.1,10.7,21.9,5.1c4.8-3.9,5-10,4-15.7c1.8,0.5,3.6,1.1,5.5,1.5
			c2.5,16.4-1.2,31.2-24.5,24.3c-37.9-11.3-28.7-44-59.6-97.8C230.6,190.6,235.6,197.4,243.1,204.3z"/>
		<path class="st6" d="M308.3,289.2c-3.7,1.9-8.9,2.3-15.9,0.6l0,0c-0.8-0.2-1.6-0.4-2.4-0.7l0,0c-19.2-5.7-26.6-17-32.9-33.4l0,0
			c-6.3-16.4-11.7-37.9-27.1-64.7l1.2-0.8l0,0c0,0,2.8,3.7,7.3,8.5l0,0c4.5,4.7,10.7,10.5,17.5,14.4l0.2,0.1l0.1,0.2l0,0
			c12.1,19.6,22.3,41,58.6,50l0.5,0.1l0.1,0.5l0,0c0.8,5.6,1,11-0.1,15.6l0,0C314.2,283.8,312,287.3,308.3,289.2L308.3,289.2z
			 M313.8,279.2c1-4.1,0.9-9.2,0.2-14.5l0,0c-36.4-9.1-47-31.1-58.9-50.4l0,0c-8.2-4.8-15.5-12.1-20-17.2l0,0
			c12.6,23.8,17.7,43.2,23.4,58l0,0c6.3,16.3,13.2,26.9,32,32.5l0,0c0.8,0.2,1.6,0.5,2.4,0.6l0,0C306.3,291.6,311.8,287,313.8,279.2
			L313.8,279.2z"/>
	</g>
	<g>
		<path class="st12" d="M354.6,403.9c0,0-1.3-22.3-23.3-37.7c-26.6-18.5,11.9-49.7-40.9-117.4c-7.4-10.7-17.2-12.7-17.2-12.7
			s21,36.3,28.3,58.1c8.6,25.8-10.7,65,3.6,80.1c9.9,10.4,30.4,24.8,32.9,37.8c2.1-6.8,4.6-18.5-2.7-26.4
			C344.9,387.3,354.6,403.9,354.6,403.9z"/>
		<path class="st13" d="M354.6,403.9c0,0-1.3-22.3-23.3-37.7c-26.6-18.5,11.9-49.7-40.9-117.4c-7.4-10.7-17.2-12.7-17.2-12.7
			s25.6,35.3,32.9,57.1c8.6,25.8-11.2,64.8,3.2,79.8c9.9,10.4,28.9,17.3,28.8,39c2.1-6.8,4.6-18.5-2.7-26.4
			C344.9,387.3,354.6,403.9,354.6,403.9z"/>
		<path class="st14" d="M337.2,412.2L337.2,412.2c-2.4-12.4-22.7-26.9-32.7-37.4l0,0c-7.5-8-6.1-21.7-4.1-36.6l0,0
			c2-14.9,4.6-31.1,0.4-43.7l0,0c-3.6-10.8-10.7-25.3-16.8-37.1l0,0c-6.2-11.8-11.4-20.8-11.4-20.9l-0.8-1.4l1.6,0.3l0,0
			c0,0,0.1,0,0.2,0.1l0,0c1.5,0.4,10.6,3,17.5,13l0,0c26.5,33.9,30.1,58.9,30.4,77.5l0,0c0.3,18.8-2.6,30.7,10.3,39.6l0,0
			c23.6,16.4,24,41,24.1,41.1l-1.8-2.4l0,0c0,0-2.3-3.9-5.7-8.1l0,0c-3-3.7-7-7.6-10.9-9.2l0,0c4.8,6.9,3.8,15.7,2.3,22.1l0,0
			c-0.3,1.2-1.4,4.9-1.7,5.9L337.2,412.2z M335.4,384.9c0.3,0,0.5,0.1,0.8,0.2l0,0c7.2,1.9,14,10.8,17.2,15.5l0,0
			c0-0.1,0-0.2-0.1-0.3l0,0c-1.4-6.9-6.1-22.1-22.5-33.5l0,0c-13.7-9.6-10.6-22.5-10.9-40.8l0,0c-0.3-18.5-3.8-42.9-30.1-76.7l0,0
			c-5.3-7.7-12-10.8-15.1-11.9l0,0c4.1,7.3,21,37.5,27.4,56.6l0,0c4.4,13.2,1.7,29.5-0.3,44.4l0,0c-2,14.9-3.1,28.3,3.7,35.4l0,0
			c9.2,9.7,27.8,22.8,32.4,35.5l0,0c0.1-0.2,0.1-0.4,0.2-0.6l0,0c1.7-6.8,2.6-16.1-3.4-22.5l-1.5-1.6L335.4,384.9L335.4,384.9z"/>
	</g>
	<path class="st6" d="M207.9,170.9c7.4-7.3,19.8-6.2,26.6-4c4.4,1.5,6.4,3.1,6.4,3.1l0,0c0,0-2.3-1-6-1.9c-4-1-9.5-1.8-15.2-1.2
		c1.1,5.7,3.8,11.4,6.4,15.7c2.7,4.5,5,7.4,5,7.4l-1.2,0.9l0,0c0-0.1-9.5-11.7-11.8-23.9C214.7,167.8,211.2,168.9,207.9,170.9
		L207.9,170.9z"/>
	<g>
		<path class="st9" d="M341.1,252l-1.3-0.7c0,0-1.2,2.3-3.2,4.9l0,0c-2,2.6-4.7,5.3-7.5,6.2l0,0l0.5,1.4
			C336.2,261.6,341,252,341.1,252L341.1,252z"/>
	</g>
	<g>
		<path class="st0" d="M306.9,256.7c0,0-14.6,17.2-19.2,14.7c-3.3-1.7,4.1-8.9,0.6-18.4C292.5,252,306.9,256.7,306.9,256.7z"/>
		<path class="st1" d="M299,248.1c0,0-6.7,25.8-11.4,23.4c-3.3-1.7,4.1-8.9,0.6-18.4C292.5,252,299,248.1,299,248.1z"/>
		<path class="st2" d="M293.5,270.5c-2.1,1.4-3.9,2.3-5.7,1.9l0,0c-0.2-0.1-0.4-0.1-0.6-0.2l0,0c-1.5-0.8-1.5-2.4-1.1-3.7l0,0
			c0.4-1.5,1.1-3.3,1.7-5.5l0,0c0.7-2.8,1-6-0.3-9.6l-0.3-0.8l0.8-0.2l0,0c2.4-0.5,6.6,0.3,10.5,1.3l0,0c4.4,1.1,8.5,2.4,8.5,2.4
			l1.1,0.3l-0.7,0.8l0,0c0,0-3.5,4.1-7.6,8l0,0C297.8,267.2,295.6,269.1,293.5,270.5L293.5,270.5z M292.7,269.2
			c4.8-3.2,10.8-9.8,12.8-12.1l0,0c-1.5-0.5-4.3-1.3-7.3-2.1l0,0c-3.3-0.8-7-1.5-9-1.4l0,0c1.1,3.6,0.7,6.9,0.1,9.6l0,0
			c-0.6,2.2-1.3,4.1-1.7,5.5l0,0c-0.3,1.4-0.2,1.8,0.3,2.1l0,0c0.1,0,0.2,0.1,0.3,0.1l0,0C289,271.2,290.8,270.5,292.7,269.2
			L292.7,269.2z"/>
	</g>
	<g>
		<path class="st15" d="M275.9,245.3c0,0,28.5,29.6,53.5,17.9c21,12.4,53.7-9.4,44.2-31.6c-8.3-19.3-35.8-1.6-40.9-2.4
			c-5.3-0.9-22-19.4-49-9.1C261.3,228.6,275.9,245.3,275.9,245.3z"/>
		<path class="st4" d="M279.8,240.8c0,0,26.1,25.2,51,13.4c21,12.4,49.2,0.6,42.8-22.7c-6.9-25-34.2-8.3-39.2-9.2
			c-5.3-0.9-22.7-15.7-49.8-5.7C257.1,226.8,279.8,240.8,279.8,240.8z"/>
		<path class="st16" d="M280.9,242.4c0,0,25.4,25.8,50.3,14c21,12.4,51.8-2.7,42.3-24.9c-8.3-19.3-35.8-1.6-40.9-2.4
			c-5.3-0.9-22-19.4-49-9.1C261.3,228.6,280.9,242.4,280.9,242.4z"/>
		<path class="st17" d="M278.4,243.3c0,0,26.4,26.5,51.3,14.8c21,12.4,54.3-4.8,43.9-26.6c-7.8-16.3-37,5.3-42.1,4.4
			c-5.3-0.9-24.2-24.4-47.8-15.9C261.2,228.1,278.4,243.3,278.4,243.3z"/>
		<path class="st18" d="M329.3,264c-7.2,3.3-14.6,3.2-21.6,1.5l0,0c-17.7-4.4-32.4-19.7-32.4-19.7l0.5-0.5l-0.6,0.5l0,0
			c0-0.1-6.3-7.2-4.5-15l0,0c1-4.2,4.6-8.4,12.6-11.5l0,0c10.3-3.9,19.1-3.8,26.4-2l0,0c11.9,2.9,19.8,10.3,22.8,10.9l0,0
			c0.1,0,0.1,0,0.2,0l0,0c1.3,0.3,6.5-1.8,12.4-3.8l0,0c6-2,13-3.7,19-2.2l0,0c4.2,1,7.9,3.8,10.1,9l0,0c2,4.6,2.2,9.1,1.1,13.4l0,0
			c-3.8,14.9-23,26-39.3,22l0,0C333.7,266.1,331.4,265.2,329.3,264L329.3,264z M329,262.4l0.4-0.2l0.3,0.2l0,0
			c2.1,1.2,4.4,2.1,6.7,2.7l0,0c7.8,1.9,16.3,0.2,23.3-3.8l0,0c7-4,12.5-10.2,14.2-17.2l0,0c1-4,0.8-8.2-1.1-12.4l0,0
			c-2.1-4.8-5.3-7.1-9.1-8.1l0,0c-5.5-1.4-12.2,0.3-18.1,2.2l0,0c-6,1.9-10.7,4.2-13.1,3.9l0,0c-0.1,0-0.2,0-0.3-0.1l0,0
			c-3.9-1-11.2-8.1-22.8-10.9l0,0c-7-1.7-15.5-1.9-25.5,1.9l0,0c-7.7,3-10.7,6.8-11.6,10.4l0,0c-0.8,3.4,0.2,6.8,1.4,9.4l0,0
			c1.2,2.5,2.6,4.1,2.7,4.3l0,0c0.3,0.3,3.8,3.9,9.4,8l0,0c5.8,4.3,13.7,9.1,22.3,11.2l0,0C314.9,265.7,322.1,265.7,329,262.4
			L329,262.4z"/>
	</g>
	<g>
		<path class="st19" d="M316.6,251.4c0,0,3.9-14.3-4-16.3c-6.2-1.5-8.1,3.4-6.8,7.4C307,246.6,313.4,253.6,316.6,251.4z"/>
		<path class="st18" d="M317,252.1c-0.8,0.6-1.8,0.6-2.8,0.4l0,0c0,0,0,0,0,0l0,0c-3.8-1-8-6.1-9.2-9.7l0,0c-0.5-1.5-0.6-3-0.2-4.4
			l0,0c0.4-1.4,1.2-2.8,2.6-3.5l0,0c1.4-0.8,3.2-1,5.4-0.4l0,0c4.1,1,5.4,5,5.5,8.6l0,0c0.2,3.7-0.6,7.3-0.9,8.3l0,0
			c0,0.2-0.1,0.3-0.1,0.3l-0.1,0.3L317,252.1l-0.4-0.6l-0.7-0.2l0.7,0.2L317,252.1L317,252.1z M314.6,251c0.6,0.1,1,0.1,1.4,0l0,0
			c0.3-1,1-4.5,0.8-7.8l0,0c-0.2-3.4-1.2-6.5-4.4-7.2l0,0c-3.9-0.9-5.5,0.7-6.1,2.9l0,0c-0.3,1.1-0.2,2.4,0.2,3.6l0,0
			C307.3,245.3,311.7,250.4,314.6,251L314.6,251z"/>
	</g>
	<g>
		<path class="st19" d="M352.2,253.4c0,0,3.2-14.5,11.2-12.5c6.2,1.5,5.6,6.8,2.6,9.7C363,253.5,354.1,256.7,352.2,253.4z"/>
		<path class="st18" d="M353.9,255.4C353.9,255.4,353.9,255.4,353.9,255.4L353.9,255.4c-1-0.2-1.8-0.8-2.3-1.6l-0.1-0.3l0.1-0.3l0,0
			c0,0,0-0.1,0.1-0.3l0,0c0.3-1,1.2-4.6,3.1-7.8l0,0c1.8-3.1,4.8-6,8.9-5l0,0c2.2,0.5,3.7,1.6,4.6,2.9l0,0c0.8,1.3,1,2.9,0.6,4.3
			l0,0c-0.4,1.4-1.1,2.7-2.2,3.8l0,0C363.8,253.6,357.7,256.2,353.9,255.4L353.9,255.4z M363.2,241.5
			C363.2,241.5,363.2,241.5,363.2,241.5L363.2,241.5c-3.2-0.8-5.5,1.4-7.3,4.4l0,0c-1.7,2.9-2.7,6.3-2.9,7.3l0,0
			c0.3,0.3,0.6,0.5,1.2,0.7l0,0c2.8,0.8,9.1-1.7,11.2-3.9l0,0c0.9-0.9,1.6-2,1.8-3.1l0,0C367.8,244.7,367.1,242.6,363.2,241.5
			L363.2,241.5z"/>
	</g>
	<g>
		<path class="st9" d="M275.2,154.7c-0.9,3.5,1.3,7,4.7,7.8c3.5,0.9,7-1.3,7.8-4.7c0.9-3.5-1.3-7-4.7-7.8
			C279.6,149.1,276.1,151.2,275.2,154.7z"/>
	</g>
	<g>
		<path class="st9" d="M328,159.8c-0.9,3.5,1.3,7,4.7,7.8c3.5,0.9,7-1.3,7.8-4.7c0.9-3.5-1.3-7-4.7-7.8
			C332.4,154.2,328.9,156.3,328,159.8z"/>
	</g>
	<path class="st0" d="M335.4,157.8c-0.3,1.3,0.5,2.7,1.8,3c1.3,0.3,2.7-0.5,3-1.8c0.3-1.3-0.5-2.7-1.8-3
		C337.1,155.6,335.8,156.4,335.4,157.8z"/>
</g>
</svg>
