<?xml version="1.0" encoding="utf-8"?>
<!-- Generator: Adobe Illustrator 22.1.0, SVG Export Plug-In . SVG Version: 6.00 Build 0)  -->
<svg version="1.1" id="Layer_1" xmlns="http://www.w3.org/2000/svg" xmlns:xlink="http://www.w3.org/1999/xlink" x="0px" y="0px"
	 viewBox="0 0 566.4 600" style="enable-background:new 0 0 566.4 600;" xml:space="preserve">
<style type="text/css">
	.st0{display:none;}
	.st1{display:inline;stroke:#FFFFFF;stroke-miterlimit:10;}
	.st2{display:inline;fill:#231F20;stroke:#FFFFFF;stroke-width:0.75;stroke-miterlimit:10;}
	.st3{display:inline;fill:#418BC2;}
	.st4{display:inline;fill:#231F20;}
	.st5{display:inline;fill:#F4DC4D;}
	.st6{display:inline;}
	.st7{fill:#231F20;}
	.st8{fill:#FFFFFF;stroke:#231F20;stroke-width:0.25;stroke-miterlimit:10;}
	.st9{fill:#231F20;stroke:#FFFFFF;stroke-width:0.5;stroke-miterlimit:10;}
</style>
<g class="st0">
	<rect x="56.6" y="105.6" class="st1" width="100.7" height="100.7"/>
	<rect x="157.3" y="105.6" class="st1" width="100.7" height="100.7"/>
	<rect x="258" y="105.6" class="st1" width="100.7" height="100.7"/>
	<rect x="355.9" y="105.6" class="st1" width="100.7" height="100.7"/>
	<rect x="456.6" y="105.6" class="st1" width="100.7" height="100.7"/>
</g>
<g class="st0">
	<rect x="65.7" y="203.1" class="st1" width="100.7" height="100.7"/>
	<rect x="166.4" y="203.1" class="st1" width="100.7" height="100.7"/>
	<rect x="267.1" y="203.1" class="st1" width="100.7" height="100.7"/>
	<rect x="365" y="203.1" class="st1" width="100.7" height="100.7"/>
	<rect x="465.7" y="203.1" class="st1" width="100.7" height="100.7"/>
</g>
<g class="st0">
	<rect x="58" y="307" class="st1" width="100.7" height="100.7"/>
	<rect x="158.7" y="307" class="st1" width="100.7" height="100.7"/>
	<rect x="259.4" y="307" class="st1" width="100.7" height="100.7"/>
	<rect x="357.3" y="307" class="st1" width="100.7" height="100.7"/>
	<rect x="458" y="307" class="st1" width="100.7" height="100.7"/>
</g>
<g class="st0">
	<rect x="58" y="411.2" class="st1" width="100.7" height="100.7"/>
	<rect x="158.7" y="411.2" class="st1" width="100.7" height="100.7"/>
	<rect x="259.4" y="411.2" class="st1" width="100.7" height="100.7"/>
	<rect x="357.3" y="411.2" class="st1" width="100.7" height="100.7"/>
	<rect x="458" y="411.2" class="st1" width="100.7" height="100.7"/>
</g>
<g class="st0">
	<rect x="58" y="511.9" class="st1" width="100.7" height="100.7"/>
	<rect x="158.7" y="511.9" class="st1" width="100.7" height="100.7"/>
	<rect x="259.4" y="511.9" class="st1" width="100.7" height="100.7"/>
	<rect x="357.3" y="511.9" class="st1" width="100.7" height="100.7"/>
	<rect x="458" y="511.9" class="st1" width="100.7" height="100.7"/>
</g>
<g class="st0">
	<rect x="59.4" y="4.9" class="st1" width="100.7" height="100.7"/>
	<rect x="160.1" y="4.9" class="st1" width="100.7" height="100.7"/>
	<rect x="260.8" y="4.9" class="st1" width="100.7" height="100.7"/>
	<rect x="358.7" y="4.9" class="st1" width="100.7" height="100.7"/>
	<rect x="459.4" y="4.9" class="st1" width="100.7" height="100.7"/>
</g>
<g class="st0">
	<path class="st2" d="M173.5,60.6c0,0-2.2-0.4-1.7-3.4l0.6-2.8l0.5-0.7l1-0.7l1.6-0.4c0,0,1.1-0.2,1.7,1.1c0,0,0.2,0.5,0.5,0.6
		c0.1,0,1.3,0.4,1.4,0.4c0.1,0,1.1,0.2,1.1,0.2s5.6,1.7,8.3,1.6c2.8-0.1,7.5,0,10.1,3.6c0,0,0.7,1.6,4.1,2.1l1.3,0.4
		c0,0,0.6,0.5,0.5,0.6c-0.1,0.1,0.6,1.1,0.6,1.1s0.8,0.4,0.8,0.5s0.7,1.7,0.7,1.7s0.7,0.4,0.8,0.5s0.8,0.8,0.8,0.8l0.7,0.5
		c0,0,8.1,3.6,9.8,16.4c0.6,4.7,1.6,11.5,4.1,18.1c4.5,11.3,16.3,21.5,35.1,20.9c0,0,5.2-0.4,11.8,0c12.2,0.6,17.5,4,28.8,14.8
		c0,0,8.4,11.7,24.9,10.1c0,0,9.9-1.8,13.6,4.8c0,0,1,4.7-3.4,1.4c-4.3-3.3-12.7-0.4-14.1,0.1c-2.3,0.8-14.6,3.7-26.2-8.6
		c0,0-12.2-13.4-30.1-11c-7.4,1-17.9,1.1-27.8-2.2c-14-4.6-24.3-13.2-27.8-40.2c0,0-0.4-11.8-9.1-17.3c0,0-9.7,0-13.9-4
		c0,0-4.3-4-8.3-4.9l-1.7-0.4c0,0-0.8-0.1-1.1-0.4c-0.1-0.1-0.7-0.6-0.6-1c0.1-0.2,0.1-1,0.1-1l0.4-0.7l0.4-0.5l0.1-0.8l-0.1-0.8
		L173.5,60.6z"/>
	<path class="st3" d="M335.5,153.8c-1.1-1.8-2.8-3-5.2-3.6c-3.3-0.8-6.6-0.2-6.8-0.2h-0.1c-3.7,0.4-7.2,0.1-10.7-0.7
		c-9.5-2.4-14.7-8.8-15.5-9.8c-8.1-7.8-12.9-11.6-19.6-13.3l0,0c-2.3-0.6-4.9-1-8.2-1.1c-6.5-0.4-11.6,0-11.7,0
		c-4.5,0.1-8.8-0.2-12.8-1.3c-11.2-2.9-19.9-10.4-23.9-20.5c-2.7-6.9-3.6-14.1-4.2-18.5c-1.6-11.7-8.6-15.1-8.9-15.2h-0.1l-1-0.6
		l-0.1-0.1c0,0-0.5-0.5-0.6-0.6c-0.2-0.1-0.6-0.4-0.6-0.4l-0.4-0.2l-0.2-0.5c-0.2-0.6-0.5-1.1-0.6-1.3c-0.1,0-0.6-0.2-0.6-0.2
		l-0.2-0.4c-0.4-0.6-0.6-1-0.7-1.3l-0.7-0.1c-0.5-0.1-0.8-0.1-1.3-0.2c-2.5-0.6-3.5-1.9-3.9-2.4c-1-1.2-2.3-2.1-4.1-2.5
		c-1.3-0.4-2.9-0.5-4.7-0.4c-1.9,0.1-4.8-0.5-7-1.1c-1.1-0.2-1.8-0.5-1.8-0.5l-2.5-0.6c-0.4-0.1-0.8-0.4-1.4-1.2l0,0v-0.1
		c0-0.1-0.1-0.1-0.1-0.2l-1.1,0.2l-0.4,0.4l-0.1,0.2l-0.5,2.4c-0.1,1,0.1,1.6,0.5,1.6l0.8,0.1l0.6,1.7l0.1,1.2c1,1,3,1.9,8,2.1
		l0.8-0.2c0,0,0.8-0.1,0.7,0c0,0.1,0,0.4-0.1,0.6c-0.1,0.4-0.2,1.1-0.4,1.2c0,0.1-0.5,0.5-0.5,0.5s-0.2-0.2-0.2-0.4
		s-0.1-0.6-0.1-0.6s-4.8,0.2-8.4-1.8v0.1l-0.5,0.7l-0.1,0.4c0,0.1,0,0.2,0,0.2l0,0c0.2,0,0.4,0.1,0.4,0.1l1.7,0.4
		c4.2,1.1,8.7,5.1,8.9,5.3c1.2,1.1,3,2.1,5.6,2.7c3.6,1,7.4,1,7.4,1h0.5l0.4,0.2c8.9,5.7,9.7,17.3,9.8,18.5
		c3.4,26.2,13.2,34.5,26.8,38.9c1,0.4,1.9,0.6,3,0.8c9.9,2.5,19.4,1.8,24.1,1.2c4.3-0.6,8.7-0.4,12.9,0.7
		c11.1,2.9,18.1,10.4,18.3,10.6c4,4.2,8.4,7,13.4,8.3c6.4,1.7,11.1,0,11.3-0.1c2.3-0.8,8-2.5,12.4-1.4c1.2,0.4,2.2,0.8,3.1,1.4
		c0.5,0.4,0.8,0.6,1.1,0.7C335.5,154.2,335.5,153.9,335.5,153.8z"/>
	<path class="st3" d="M173.2,61.1l0.1,1.3c0,0-10.6,1.2-14.4,4.8c0,0,0.6-3.3,4-3.6c0.1,0-1.4-0.6-2.9-2.5
		C160,61.1,164.6,63.5,173.2,61.1z"/>
	<path class="st4" d="M175.2,55.8c0,0-0.1,0.5-0.7,1c-0.6,0.5,0.2,1,0.2,1s0.2,1.8,1.7,1c1.4-0.8,1.1-1.6,0.5-2.2c-0.6-0.6-1-1-1-1
		l-0.4-0.2C175.7,55.3,175.2,55.2,175.2,55.8z"/>
	<path class="st5" d="M323.5,150h-0.1c-3.7,0.4-7.2,0.1-10.7-0.7c-9.5-2.4-14.7-8.8-15.5-9.8c-8.1-7.8-12.9-11.6-19.6-13.3l0,0
		c-2.3-0.6-4.9-1-8.2-1.1c-6.5-0.4-11.6,0-11.7,0c-4.5,0.1-8.8-0.2-12.8-1.3c-11.2-2.9-19.9-10.4-23.9-20.5
		c-2.7-6.9-3.6-14.1-4.2-18.5c-1.6-11.7-8.6-15.1-8.9-15.2h-0.1l-1-0.6l-0.1-0.1c0,0-0.5-0.5-0.6-0.6c-0.2-0.1-0.6-0.4-0.6-0.4
		l-0.4-0.2l-0.2-0.5c-0.2-0.6-0.5-1.1-0.6-1.3c-0.1,0-0.6-0.2-0.6-0.2l-0.2-0.4c-0.4-0.6-0.6-1-0.7-1.3l-0.7-0.1
		c-0.5-0.1-0.8-0.1-1.3-0.2c-2.5-0.6-3.5-1.9-3.9-2.4c-1-1.2-2.3-2.1-4.1-2.5c-1.3-0.4-2.9-0.5-4.7-0.4c-1.9,0.1-4.8-0.5-7-1.1
		c-1.1-0.2-1.8-0.5-1.8-0.5l-2.5-0.6c-0.4-0.1-0.8-0.4-1.4-1.2l0,0v-0.1c0-0.1-0.1-0.1-0.1-0.2l-1.1,0.2l-0.4,0.4l-0.1,0.2l-0.4,1.6
		c4.5,0.7,14.5,2.7,18.6,6.3c0,0,0,2.5,4.3,2.2c4.3-0.4,4.2,2.9,3.7,4.7c-0.5,1.8,1.6,5.2,7,6.4c0,0,3.6,0.2,2.4,5.4
		c-1.2,5.2,2.3,7.4,4.6,7.7l-2.2,8.4l6.9,5.8l-1.9,8.9l4.6,1.9c0,0,3.5,1.3,3,6.6c0,0,0.2,5.7,6.9,4.1c0,0,4.6-1.4,7.1,3.6
		c0,0,0.5,4.8,7,1.2c0,0,3.5-3.4,8.1,0.5c0,0,2.7,3.9,7.1-0.7c0,0,4.8-5.4,9.1,0.8c0,0,3.3,5.2,10.7,1.4c0,0,5.1-2.7,6.4,3.9
		c1.3,6.5,9.1,6.3,9.1,6.3s2.9-0.1,3.9,4c1,4.1,2.9,6.8,8.4,4.6c0,0,1.7-1.2,6.3,0.7c4.5,1.8,8.8-0.5,12.2-1.4
		C324.9,149.7,323.5,150,323.5,150z"/>
	<g class="st6">
		<path class="st7" d="M188.5,61.6c0,0-1,0.7,1.6,3c2.5,2.4,3.5,0.4,3.5,0.4s1.2-2.1-2.7-3.6C190.7,61.5,189.1,60.8,188.5,61.6z"/>
		<path class="st8" d="M192.6,65.1c0.2-0.1,0.4-0.4,0.4-0.4s0.2-0.5,0-1c-0.1-0.5-0.7-1.2-2.4-1.8c-0.5-0.1-1.3-0.4-1.7-0.1
			c0,0,0,0-0.1,0.1v0.1c0,0.1,0.1,0.8,1.6,2.2C190.9,64.7,191.8,65.5,192.6,65.1z"/>
		<path class="st7" d="M190.3,63.9c0.2,0.5,1,0.7,1.4,0.5c0.5-0.2,0.6-1,0.4-1.4c-0.2-0.5-1-0.7-1.4-0.5
			C190.1,62.7,189.9,63.4,190.3,63.9z"/>
	</g>
	<path class="st3" d="M206.1,69.9c0.5,1.4-0.1,2.9-1.2,3.3c-1.1,0.4-2.4-0.5-2.9-1.9s0.1-2.9,1.2-3.3
		C204.3,67.6,205.6,68.5,206.1,69.9z"/>
	<path class="st3" d="M214.9,82.8c0.5,1.3,0,2.7-1.1,3c-1.1,0.4-2.3-0.5-2.8-1.8c-0.5-1.3,0-2.7,1.1-3
		C213.2,80.7,214.4,81.5,214.9,82.8z"/>
	<path class="st3" d="M218,96.5c0.2,1.3-0.4,2.5-1.3,2.7c-1,0.2-2.1-0.6-2.3-1.9s0.4-2.5,1.3-2.7C216.8,94.4,217.8,95.3,218,96.5z"
		/>
	<path class="st3" d="M222.5,110.1c0.5,1.2,0.1,2.5-0.8,2.9c-1,0.4-2.2-0.2-2.7-1.4s-0.1-2.5,0.8-2.9
		C220.8,108.2,222,108.9,222.5,110.1z"/>
	<ellipse class="st3" cx="228.6" cy="120.9" rx="2.1" ry="2.1"/>
	<path class="st3" d="M243.9,127.6c-0.4,1.2-1.6,1.9-2.8,1.7c-1.2-0.4-1.9-1.6-1.7-2.8c0.4-1.2,1.6-1.9,2.8-1.7
		C243.5,125.1,244.2,126.4,243.9,127.6z"/>
	
		<ellipse transform="matrix(0.2486 -0.9686 0.9686 0.2486 68.2631 343.8014)" class="st3" cx="255.7" cy="127.9" rx="2.1" ry="2.1"/>
	<ellipse transform="matrix(0.2486 -0.9686 0.9686 0.2486 80.8088 362.2875)" class="st3" cx="273.9" cy="129.1" rx="1.9" ry="3"/>
	<path class="st3" d="M293,139c-0.4,0.5-1.2,0.6-1.9,0.1s-1-1.2-0.6-1.8c0.4-0.5,1.2-0.6,1.9-0.1C293,137.6,293.3,138.4,293,139z"/>
	<path class="st3" d="M305.9,149.4c-0.4,0.6-1.3,0.6-2.3,0.1s-1.4-1.4-1.1-2.1c0.4-0.6,1.3-0.6,2.3-0.1
		C305.8,147.8,306.3,148.7,305.9,149.4z"/>
</g>
<g class="st0">
	<path class="st2" d="M194.5,270.8c0,0-1.8-0.3-1.4-2.8l0.5-2.3l0.4-0.6l0.8-0.6l1.3-0.3c0,0,0.9-0.2,1.4,0.9c0,0,0.2,0.4,0.4,0.5
		s1.1,0.3,1.2,0.3c0.1,0,0.9,0.2,0.9,0.2s4.6,1.4,6.9,1.3c2.3-0.1,6.2,0,8.4,3c0,0,0.6,1.3,3.4,1.7l1.1,0.3c0,0,0.5,0.4,0.4,0.5
		c0,0.2,0.5,0.9,0.5,0.9s0.7,0.3,0.7,0.4s0.6,1.4,0.6,1.4s0.6,0.3,0.7,0.4c0.1,0.1,0.7,0.7,0.7,0.7l0.6,0.4c0,0,6.7,3,8.1,13.6
		c0.5,3.9,1.3,9.5,3.4,15c3.7,9.4,13.5,17.8,29.1,17.3c0,0,4.3-0.3,9.8,0c10.1,0.5,14.5,3.3,23.9,12.3c0,0,7,9.7,20.6,8.4
		c0,0,8.2-1.5,11.3,4c0,0,0.8,3.9-2.8,1.2c-3.6-2.7-10.5-0.3-11.7,0.1c-1.9,0.7-12.1,3.1-21.7-7.1c0,0-10.1-11.1-24.9-9.1
		c-6.1,0.8-14.8,0.9-23-1.8c-11.6-3.8-20.1-10.9-23-33.3c0,0-0.3-9.8-7.5-14.3c0,0-8,0-11.5-3.3c0,0-3.6-3.3-6.9-4.1l-1.4-0.3
		c0,0-0.7-0.1-0.9-0.3c-0.1-0.1-0.6-0.5-0.5-0.8c0.1-0.2,0.1-0.8,0.1-0.8l0.3-0.6l0.3-0.4l0.1-0.7l-0.1-0.7L194.5,270.8z"/>
	<path class="st3" d="M328.7,348.1c-0.9-1.5-2.3-2.5-4.3-3c-2.7-0.7-5.5-0.2-5.6-0.2h-0.1c-3.1,0.3-6,0.1-8.9-0.6
		c-7.9-2-12.2-7.3-12.8-8.1c-6.7-6.5-10.7-9.6-16.2-11l0,0c-1.9-0.5-4.1-0.8-6.8-0.9c-5.4-0.3-9.6,0-9.7,0
		c-3.7,0.1-7.3-0.2-10.6-1.1c-9.3-2.4-16.5-8.6-19.8-17c-2.2-5.7-3-11.7-3.5-15.3c-1.3-9.7-7.1-12.5-7.4-12.6h-0.1l-0.8-0.5
		l-0.1-0.1c0,0-0.4-0.4-0.5-0.5c-0.2-0.1-0.5-0.3-0.5-0.3l-0.3-0.2l-0.2-0.4c-0.2-0.5-0.4-0.9-0.5-1.1c-0.1,0-0.5-0.2-0.5-0.2
		l-0.2-0.3c-0.3-0.5-0.5-0.8-0.6-1.1l-0.6-0.1c-0.4-0.1-0.7-0.1-1.1-0.2c-2.1-0.5-2.9-1.6-3.2-2c-0.8-1-1.9-1.7-3.4-2.1
		c-1.1-0.3-2.4-0.4-3.9-0.3c-1.6,0.1-4-0.4-5.8-0.9c-0.9-0.2-1.5-0.4-1.5-0.4l-2.1-0.5c-0.3-0.1-0.7-0.3-1.2-1l0,0V266
		c0-0.1-0.1-0.1-0.1-0.2l-0.9,0.2l-0.3,0.3l-0.1,0.2l-0.4,2c-0.1,0.8,0.1,1.3,0.4,1.3l0.7,0.1l0.5,1.4l0.1,1
		c0.8,0.8,2.5,1.6,6.6,1.7l0.7-0.2c0,0,0.7-0.1,0.6,0c0,0.1,0,0.3-0.1,0.5c-0.1,0.3-0.2,0.9-0.3,1c0,0.1-0.4,0.4-0.4,0.4
		s-0.2-0.2-0.2-0.3c0-0.1-0.1-0.5-0.1-0.5s-4,0.2-7-1.5v0.1l-0.4,0.6l-0.1,0.3c0,0.1,0,0.2,0,0.2l0,0c0.2,0,0.3,0.1,0.3,0.1l1.4,0.3
		c3.5,0.9,7.2,4.2,7.4,4.4c1,0.9,2.5,1.7,4.6,2.2c3,0.8,6.1,0.8,6.1,0.8h0.4l0.3,0.2c7.4,4.7,8,14.3,8.1,15.3
		c2.8,21.7,10.9,28.6,22.2,32.2c0.8,0.3,1.6,0.5,2.5,0.7c8.2,2.1,16.1,1.5,20,1c3.6-0.5,7.2-0.3,10.7,0.6c9.2,2.4,15,8.6,15.2,8.8
		c3.3,3.5,7,5.8,11.1,6.9c5.3,1.4,9.2,0,9.4-0.1c1.9-0.7,6.6-2.1,10.3-1.2c1,0.3,1.8,0.7,2.6,1.2c0.4,0.3,0.7,0.5,0.9,0.6
		C328.7,348.3,328.7,348.2,328.7,348.1z"/>
	<path class="st3" d="M194.3,271.2l0.1,1.1c0,0-8.8,1-11.9,4c0,0,0.5-2.7,3.3-3c0.1,0-1.2-0.5-2.4-2.1
		C183.3,271.2,187.1,273.3,194.3,271.2z"/>
	<path class="st4" d="M195.9,266.8c0,0-0.1,0.4-0.6,0.8s0.2,0.8,0.2,0.8s0.2,1.5,1.4,0.8s0.9-1.3,0.4-1.8s-0.8-0.8-0.8-0.8l-0.3-0.2
		C196.3,266.4,195.9,266.4,195.9,266.8z"/>
	<path class="st5" d="M318.8,344.9h-0.1c-3.1,0.3-6,0.1-8.9-0.6c-7.9-2-12.2-7.3-12.8-8.1c-6.7-6.5-10.7-9.6-16.2-11l0,0
		c-1.9-0.5-4.1-0.8-6.8-0.9c-5.4-0.3-9.6,0-9.7,0c-3.7,0.1-7.3-0.2-10.6-1.1c-9.3-2.4-16.5-8.6-19.8-17c-2.2-5.7-3-11.7-3.5-15.3
		c-1.3-9.7-7.1-12.5-7.4-12.6h-0.1l-0.8-0.5l-0.1-0.1c0,0-0.4-0.4-0.5-0.5c-0.2-0.1-0.5-0.3-0.5-0.3l-0.3-0.2l-0.2-0.4
		c-0.2-0.5-0.4-0.9-0.5-1.1c-0.1,0-0.5-0.2-0.5-0.2l-0.2-0.3c-0.3-0.5-0.5-0.8-0.6-1.1l-0.6-0.1c-0.4-0.1-0.7-0.1-1.1-0.2
		c-2.1-0.5-2.9-1.6-3.2-2c-0.8-1-1.9-1.7-3.4-2.1c-1.1-0.3-2.4-0.4-3.9-0.3c-1.6,0.1-4-0.4-5.8-0.9c-0.9-0.2-1.5-0.4-1.5-0.4
		l-2.1-0.5c-0.3-0.1-0.7-0.3-1.2-1l0,0V266c0-0.1-0.1-0.1-0.1-0.2l-0.9,0.2l-0.3,0.3l-0.1,0.2l-0.3,1.3c3.7,0.6,12,2.2,15.4,5.2
		c0,0,0,2.1,3.6,1.8c3.6-0.3,3.5,2.4,3.1,3.9s1.3,4.3,5.8,5.3c0,0,3,0.2,2,4.5s1.9,6.1,3.8,6.4l-1.8,7l5.7,4.8l-1.6,7.4l3.8,1.6
		c0,0,2.9,1.1,2.5,5.5c0,0,0.2,4.7,5.7,3.4c0,0,3.8-1.2,5.9,3c0,0,0.4,4,5.8,1c0,0,2.9-2.8,6.7,0.4c0,0,2.2,3.2,5.9-0.6
		c0,0,4-4.5,7.5,0.7c0,0,2.7,4.3,8.9,1.2c0,0,4.2-2.2,5.3,3.2c1.1,5.4,7.5,5.2,7.5,5.2s2.4-0.1,3.2,3.3c0.8,3.4,2.4,5.6,7,3.8
		c0,0,1.4-1,5.2,0.6c3.7,1.5,7.3-0.4,10.1-1.2C319.9,344.7,318.8,344.9,318.8,344.9z"/>
	<g class="st6">
		<path class="st7" d="M206.9,271.6c0,0-0.8,0.6,1.3,2.5c2.1,2,2.9,0.3,2.9,0.3s1-1.7-2.2-3C208.8,271.5,207.4,271,206.9,271.6z"/>
		<path class="st8" d="M210.3,274.5c0.2-0.1,0.3-0.3,0.3-0.3s0.2-0.4,0-0.8c-0.1-0.4-0.6-1-2-1.5c-0.4-0.1-1.1-0.3-1.4-0.1
			c0,0,0,0-0.1,0.1v0.1c0,0.1,0.1,0.7,1.3,1.8C208.9,274.2,209.7,274.9,210.3,274.5z"/>
		<path class="st7" d="M208.4,273.5c0.2,0.4,0.8,0.6,1.2,0.4s0.5-0.8,0.3-1.2c-0.2-0.4-0.8-0.6-1.2-0.4S208.1,273.1,208.4,273.5z"/>
	</g>
	<path class="st3" d="M221.5,278.5c0.4,1.2-0.1,2.4-1,2.7c-0.9,0.3-2-0.4-2.4-1.6s0.1-2.4,1-2.7C220,276.6,221.1,277.3,221.5,278.5z
		"/>
	<path class="st3" d="M228.8,289.2c0.4,1.1,0,2.2-0.9,2.5s-1.9-0.4-2.3-1.5c-0.4-1.1,0-2.2,0.9-2.5
		C227.4,287.5,228.4,288.1,228.8,289.2z"/>
	<path class="st3" d="M231.4,300.6c0.2,1.1-0.3,2.1-1.1,2.2c-0.8,0.2-1.7-0.5-1.9-1.6s0.3-2.1,1.1-2.2
		C230.3,298.8,231.2,299.5,231.4,300.6z"/>
	<path class="st3" d="M235.1,311.8c0.4,1,0.1,2.1-0.7,2.4s-1.8-0.2-2.2-1.2s-0.1-2.1,0.7-2.4C233.7,310.2,234.7,310.8,235.1,311.8z"
		/>
	
		<ellipse transform="matrix(0.2486 -0.9686 0.9686 0.2486 -130.2052 473.5659)" class="st3" cx="240.1" cy="320.7" rx="1.7" ry="1.7"/>
	<path class="st3" d="M252.8,326.3c-0.3,1-1.3,1.6-2.3,1.4c-1-0.3-1.6-1.3-1.4-2.3c0.3-1,1.3-1.6,2.3-1.4
		C252.5,324.3,253.1,325.3,252.8,326.3z"/>
	<ellipse class="st3" cx="262.6" cy="326.5" rx="1.7" ry="1.7"/>
	
		<ellipse transform="matrix(0.2486 -0.9686 0.9686 0.2486 -108.588 515.0217)" class="st3" cx="277.7" cy="327.5" rx="1.6" ry="2.5"/>
	<path class="st3" d="M293.4,335.7c-0.3,0.4-1,0.5-1.6,0.1s-0.8-1-0.5-1.5c0.3-0.4,1-0.5,1.6-0.1S293.7,335.2,293.4,335.7z"/>
	<path class="st3" d="M304.2,344.3c-0.3,0.5-1.1,0.5-1.9,0.1s-1.2-1.2-0.9-1.7c0.3-0.5,1.1-0.5,1.9-0.1
		C304.1,343,304.5,343.8,304.2,344.3z"/>
</g>
<g class="st0">
	<g class="st6">
		
			<rect x="237.7" y="535.7" transform="matrix(0.9486 -0.3164 0.3164 0.9486 -157.298 105.2546)" class="st9" width="15.5" height="2.6"/>
	</g>
	<g class="st6">
		
			<rect x="233.7" y="522.4" transform="matrix(0.9486 -0.3164 0.3164 0.9486 -153.3015 103.3032)" class="st9" width="15.5" height="2.6"/>
	</g>
	<g class="st6">
		
			<rect x="229.7" y="509" transform="matrix(0.9486 -0.3164 0.3164 0.9486 -149.2742 101.3341)" class="st9" width="15.5" height="2.6"/>
	</g>
	<g class="st6">
		
			<rect x="225.5" y="495.8" transform="matrix(0.9486 -0.3164 0.3164 0.9486 -145.2917 99.3532)" class="st9" width="15.5" height="2.6"/>
	</g>
	<g class="st6">
		
			<rect x="221.5" y="482.5" transform="matrix(0.9486 -0.3164 0.3164 0.9486 -141.2957 97.4025)" class="st9" width="15.5" height="2.6"/>
	</g>
	<g class="st6">
		
			<rect x="217.5" y="469.1" transform="matrix(0.9486 -0.3164 0.3164 0.9486 -137.2701 95.4355)" class="st9" width="15.5" height="2.6"/>
	</g>
	<g class="st6">
		
			<rect x="213.5" y="455.8" transform="matrix(0.9486 -0.3164 0.3164 0.9486 -133.2733 93.4839)" class="st9" width="15.5" height="2.6"/>
	</g>
	<g class="st6">
		
			<rect x="209.3" y="442.5" transform="matrix(0.9486 -0.3164 0.3164 0.9486 -129.2622 91.4879)" class="st9" width="15.5" height="2.6"/>
	</g>
	<g class="st6">
		
			<rect x="205.3" y="429.2" transform="matrix(0.9486 -0.3164 0.3164 0.9486 -125.264 89.534)" class="st9" width="15.5" height="2.6"/>
	</g>
	<g class="st6">
		<path class="st9" d="M257.8,546.6c-0.2,0.2-0.4,0.3-0.6,0.4c-0.7,0.2-1.4-0.1-1.6-0.9l-41.1-131.9c-0.2-0.7,0.1-1.4,0.9-1.6
			c0.7-0.2,1.4,0.1,1.6,0.9L258,545.5C258.1,545.9,258,546.3,257.8,546.6z"/>
	</g>
	<g class="st6">
		<path class="st9" d="M243.2,552.6c-0.2,0.2-0.4,0.3-0.6,0.4c-0.7,0.2-1.4-0.1-1.6-0.9L200,420.2c-0.2-0.7,0.1-1.4,0.9-1.6
			c0.7-0.2,1.4,0.1,1.6,0.9l41.1,131.9C243.6,551.9,243.5,552.3,243.2,552.6z"/>
	</g>
</g>
<g class="st0">
	<g class="st6">
		
			<rect x="480.1" y="255" transform="matrix(0.8366 -0.5478 0.5478 0.8366 -60.8224 308.66)" class="st9" width="13.8" height="2.6"/>
	</g>
	<g class="st6">
		
			<rect x="473.3" y="247.2" transform="matrix(0.8366 -0.5478 0.5478 0.8366 -57.6737 303.6483)" class="st9" width="13.8" height="2.6"/>
	</g>
	<g class="st6">
		
			<rect x="466.5" y="239.5" transform="matrix(0.8366 -0.5478 0.5478 0.8366 -54.552 298.6762)" class="st9" width="13.8" height="2.6"/>
	</g>
	<g class="st6">
		
			<rect x="459.7" y="231.7" transform="matrix(0.8366 -0.5478 0.5478 0.8366 -51.3842 293.6566)" class="st9" width="13.8" height="2.6"/>
	</g>
	<g class="st6">
		
			<rect x="452.8" y="224" transform="matrix(0.8366 -0.5478 0.5478 0.8366 -48.3065 288.6477)" class="st9" width="13.8" height="2.6"/>
	</g>
	<g class="st6">
		
			<rect x="446" y="216.2" transform="matrix(0.8366 -0.5478 0.5478 0.8366 -45.1474 283.6317)" class="st9" width="13.8" height="2.6"/>
	</g>
	<g class="st6">
		
			<rect x="439.2" y="208.5" transform="matrix(0.8366 -0.5478 0.5478 0.8366 -42.0397 278.666)" class="st9" width="13.8" height="2.6"/>
	</g>
	<g class="st6">
		
			<rect x="432.4" y="200.7" transform="matrix(0.8366 -0.5478 0.5478 0.8366 -38.8808 273.6502)" class="st9" width="13.8" height="2.6"/>
	</g>
	<g class="st6">
		
			<rect x="425.6" y="192.9" transform="matrix(0.8366 -0.5478 0.5478 0.8366 -35.7094 268.6283)" class="st9" width="13.8" height="2.6"/>
	</g>
	<g class="st6">
		
			<rect x="418.7" y="185.2" transform="matrix(0.8366 -0.5478 0.5478 0.8366 -32.6391 263.6232)" class="st9" width="13.8" height="2.6"/>
	</g>
	<g class="st6">
		
			<rect x="411.9" y="177.4" transform="matrix(0.8366 -0.5478 0.5478 0.8366 -29.473 258.6036)" class="st9" width="13.8" height="2.6"/>
	</g>
	<g class="st6">
		<path class="st9" d="M499.9,262.5c-0.2-0.1-0.3-0.2-0.4-0.3l-81-94.4c-0.5-0.6-0.4-1.4,0.1-1.9c0.6-0.5,1.4-0.4,1.9,0.1l81,94.4
			c0.5,0.6,0.4,1.4-0.1,1.9C500.9,262.6,500.4,262.7,499.9,262.5z"/>
	</g>
	<g class="st6">
		<path class="st9" d="M489.1,271.6c-0.2-0.1-0.3-0.2-0.4-0.3l-81-94.4c-0.5-0.6-0.4-1.4,0.1-1.9c0.6-0.5,1.4-0.4,1.9,0.1l81,94.4
			c0.5,0.6,0.4,1.4-0.1,1.9C490.1,271.8,489.5,271.8,489.1,271.6z"/>
	</g>
</g>
<g>
	<g>
		
			<rect x="359.2" y="470.2" transform="matrix(0.9814 -0.1922 0.1922 0.9814 -83.7013 80.2692)" class="st9" width="25.3" height="2.8"/>
	</g>
	<g>
		
			<rect x="354.9" y="452.7" transform="matrix(0.9815 -0.1917 0.1917 0.9815 -80.2332 78.876)" class="st9" width="25.3" height="2.8"/>
	</g>
	<g>
		
			<rect x="350.3" y="435.1" transform="matrix(0.9814 -0.1922 0.1922 0.9814 -77.136 77.8976)" class="st9" width="25.3" height="2.8"/>
	</g>
	<g>
		
			<rect x="345.9" y="417.7" transform="matrix(0.9814 -0.1922 0.1922 0.9814 -73.8697 76.7281)" class="st9" width="25.3" height="2.8"/>
	</g>
	<g>
		
			<rect x="341.5" y="400.2" transform="matrix(0.9814 -0.1922 0.1922 0.9814 -70.588 75.5503)" class="st9" width="25.3" height="2.8"/>
	</g>
	<g>
		
			<rect x="337.1" y="382.8" transform="matrix(0.9814 -0.1922 0.1922 0.9814 -67.3185 74.3825)" class="st9" width="25.3" height="2.8"/>
	</g>
	<g>
		
			<rect x="332.6" y="365.3" transform="matrix(0.9815 -0.1917 0.1917 0.9815 -63.8998 72.9863)" class="st9" width="25.3" height="2.8"/>
	</g>
	<g>
		
			<rect x="328.2" y="347.9" transform="matrix(0.9814 -0.1922 0.1922 0.9814 -60.773 72.017)" class="st9" width="25.3" height="2.8"/>
	</g>
	<g>
		
			<rect x="323.8" y="330.3" transform="matrix(0.9814 -0.1922 0.1922 0.9814 -57.4872 70.8413)" class="st9" width="25.3" height="2.8"/>
	</g>
	<g>
		
			<rect x="319.4" y="312.9" transform="matrix(0.9814 -0.1922 0.1922 0.9814 -54.2215 69.6716)" class="st9" width="25.3" height="2.8"/>
	</g>
	<g>
		
			<rect x="314.8" y="295.4" transform="matrix(0.9814 -0.192 0.192 0.9814 -50.8914 68.389)" class="st9" width="25.3" height="2.8"/>
	</g>
	<g>
		
			<rect x="310.4" y="278" transform="matrix(0.9814 -0.192 0.192 0.9814 -47.6275 67.2219)" class="st9" width="25.3" height="2.8"/>
	</g>
	<g>
		<rect x="306" y="260.5" transform="matrix(0.9814 -0.192 0.192 0.9814 -44.3453 66.048)" class="st9" width="25.3" height="2.8"/>
	</g>
	<g>
		<rect x="301.6" y="243" transform="matrix(0.9814 -0.192 0.192 0.9814 -41.0832 64.88)" class="st9" width="25.3" height="2.8"/>
	</g>
	<g>
		
			<rect x="297.1" y="225.6" transform="matrix(0.9814 -0.1919 0.1919 0.9814 -37.8052 63.6741)" class="st9" width="25.3" height="2.8"/>
	</g>
	<g>
		
			<rect x="292.7" y="208.1" transform="matrix(0.9814 -0.192 0.192 0.9814 -34.5466 62.5174)" class="st9" width="25.3" height="2.8"/>
	</g>
	<g>
		
			<rect x="288.3" y="190.6" transform="matrix(0.9814 -0.192 0.192 0.9814 -31.263 61.3441)" class="st9" width="25.3" height="2.8"/>
	</g>
	<g>
		<path class="st9" d="M387.6,483.9c-0.4-0.1-0.7-0.5-0.9-1l-79.3-312.5c-0.2-0.8,0.2-1.5,1-1.7c0.8-0.2,1.5,0.2,1.7,1l79.3,312.5
			c0.2,0.8-0.2,1.5-1,1.7C388.2,484,387.8,484,387.6,483.9z"/>
	</g>
	<g>
		<path class="st9" d="M362.1,489.3c-0.4-0.1-0.7-0.5-0.9-1l-79.3-312.5c-0.2-0.8,0.2-1.5,1-1.7c0.8-0.2,1.5,0.2,1.7,1l79.3,312.5
			c0.2,0.8-0.2,1.5-1,1.7C362.6,489.4,362.4,489.4,362.1,489.3z"/>
	</g>
</g>
</svg>
