<?xml version="1.0" encoding="utf-8"?>
<!-- Generator: Adobe Illustrator 22.1.0, SVG Export Plug-In . SVG Version: 6.00 Build 0)  -->
<svg version="1.1" id="Layer_1" xmlns="http://www.w3.org/2000/svg" xmlns:xlink="http://www.w3.org/1999/xlink" x="0px" y="0px"
	 viewBox="0 0 137.7 42" style="enable-background:new 0 0 137.7 42;" xml:space="preserve">
<style type="text/css">
	.st0{fill:#6CBE45;}
	.st1{font-family:'BethanieSnakePersonalUseOnly';}
	.st2{font-size:31.8757px;}
	.st3{font-size:31.0054px;}
	.st4{fill:#FFFFFF;}
	.st5{font-size:30.9177px;}
</style>
<text transform="matrix(1 0 0 1 25.6527 34.9072)" class="st0 st1 st2">nake</text>
<text transform="matrix(1 -1.858464e-03 1.858464e-03 1 75.3009 34.9326)" class="st0 st1 st3">Ladder</text>
<g>
	<path class="st0" d="M23.8,30.6c-1-2.4-3.3-4.2-5.6-5.4c-0.2-0.1-0.4-0.2-0.6-0.3c-0.8-0.3-1.5-0.6-2.2-1.1
		c-0.2-0.1-0.4-0.2-0.6-0.3c-0.8-0.3-1.6-0.8-2.3-1.3c-1.1-0.8-1.7-2.8-0.6-3.8c1.4-1.3,3.5-0.2,4.3,1c0.5,0.6,0.9,1.4,1.4,2.1
		c0.7,0.2,1.4,0.5,2.1,0.9c0.4-0.1,0.6-0.3,0.6-0.7C19.5,21.6,18,21,17.6,20c0-0.1,0-0.1,0.1-0.2c0.5,0.5,0.9,0.9,1.6,1.2
		c0.4,0.2,1.4,0.4,1.7,0.1c0.4-0.3,0-1-0.1-1.4c-0.1-0.4-0.4-0.8-0.5-1.1c-0.3-0.6-0.4-1.2-0.9-1.7c-1.3-1.3-3.1-2-4.9-2
		c-1.8-0.1-3.7,0.5-5,1.8c-1.2,1.2-1.4,3-1,4.6c0.5,1.8,1.6,3.3,3.1,4.3c2,1.2,3.6,1.6,5.3,2.6c0.9,0.5,2.7,1.5,3.2,2.5
		c0.3,0.7-0.1,1.7-0.8,2c-0.8,0.4-2.3-0.6-3-0.9c-1.1-0.5-2.2-1.1-3.3-1.5c-1.9-0.6-3.6-0.1-5.3,0.9c-1.5,0.9-2.5,2-2.9,3.8
		c-0.1,0.5-0.2,0.9-0.3,1.3c1-1.1,2.1-2.3,3.5-3c1.4-0.8,3-1,4.5-0.3c1.7,0.8,3,2.2,4.7,3c1.7,0.8,3.7,0.9,5.2-0.4
		C24,34.3,24.6,32.4,23.8,30.6z"/>
	<polygon class="st0" points="21.3,29.9 21.2,30.8 21.8,30.6 	"/>
	<polygon class="st0" points="17.5,29.4 19.4,28.4 19,30.1 	"/>
	<path class="st0" d="M19.9,31c0,0.3-0.2,0.4-0.5,0.4c-0.3,0-0.5-0.2-0.5-0.4c0-0.3,0.2-0.4,0.5-0.4C19.6,30.6,19.9,30.8,19.9,31z"
		/>
	<path class="st4" d="M18.4,17.8c0,0.7-0.6,1.3-1.2,1.3c-0.7,0-1.2-0.6-1.2-1.3c0-0.7,0-1.7,0.7-1.7C17.2,16.1,18.4,17.1,18.4,17.8z
		"/>
	<path class="st0" d="M60.6-22.3"/>
	<path class="st0" d="M18.1,18c0,0.6-0.5,1.1-1,1.1c-0.6,0-1-0.5-1-1.1s0.5-1.1,1-1.1C17.6,16.9,18.1,17.4,18.1,18z"/>
	<path class="st0" d="M17.2,18.1c0,0.2-0.2,0.3-0.3,0.3c-0.2,0-0.3-0.2-0.3-0.3c0-0.2,0.2-0.3,0.3-0.3
		C17.1,17.8,17.2,17.9,17.2,18.1z"/>
	<path class="st0" d="M20.3,17.9c0,0.6-0.5,1.1-1,1.1s-1-0.5-1-1.1c0-0.6,0.5-1.1,1-1.1S20.3,17.3,20.3,17.9z"/>
	<ellipse class="st0" cx="19.3" cy="18" rx="0.4" ry="0.3"/>
</g>
<text transform="matrix(1 0 0 1 63.6546 34.9072)" class="st0 st1 st5">&amp;</text>
</svg>
